<svg width="60" height="60" fill="none" xmlns="http://www.w3.org/2000/svg"><path d="M49.002 60H7.847c0-.14-.125-.1-.21-.112-.32-.047-.645-.075-.952-.155-.277-.072-.53-.203-.789-.323-.267-.124-.548-.231-.775-.399-.557-.415-1.055-.873-1.425-1.447a4.785 4.785 0 0 1-.539-1.2c-.12-.391-.147-.814-.151-1.224C2.996 51.02 3 46.906 3 42.787c0-12.631 0-25.26.005-37.89 0-.423.089-.846.133-1.269 0-.012.005-.028.01-.04.124-.29.235-.586.378-.865.129-.247.267-.502.458-.713.245-.276.544-.515.824-.766.321-.283.69-.498 1.1-.666.219-.088.42-.211.669-.251.205-.032.392-.168.592-.195.494-.064.993-.124 1.488-.124C13.57 0 18.488.004 23.4 0c.56 0 1.104.02 1.634.223.334.128.642.271.927.47.427.304.77.67.957 1.113.125.287.294.311.566.311 8.471-.004 16.938-.004 25.41-.004.187 0 .37.004.557.008.053 0 .102.004.156.012.352.072.703.136 1.046.22.2.047.392.12.58.195.186.08.378.163.547.271.308.2.66.379.882.638.263.307.548.598.744.96.187.348.352.703.445 1.07.107.422.143.865.143 1.3.009 15.314.004 30.625 0 45.94 0 .403-.058.802-.09 1.204-.03.451-.19.866-.404 1.276a4.253 4.253 0 0 1-1.208 1.44c-.378.283-.783.526-1.256.678a6.48 6.48 0 0 1-.454.127c-.312.072-.619.18-.935.188-.98.027-1.96.016-2.94.016h-.334c.062.199.13.35.151.51.036.299-.084.57-.218.841-.231.49-.632.778-1.202.893-.036.004-.067.064-.103.1Zm-7.1-22.628c.018.092.014.156.036.208.152.347.32.69.463 1.04.152.367.285.742.428 1.113.044.116.098.227.151.339.076.16.156.319.228.482.062.152.106.307.169.455.116.279.25.554.36.837.058.144.134.235.321.227.2-.008.401-.012.602 0 .52.036 1.05-.08 1.572.104.285.1.57.183.801.363.259.195.553.383.727.63.151.215.253.474.343.733.182.523.102 1.025-.076 1.504a2.012 2.012 0 0 1-.624.841c-.36.295-.757.53-1.242.622-.179.032-.25.148-.174.303.16.347.32.69.472 1.037.223.51.44 1.024.66 1.535.133.315.275.63.4.945.107.263.192.534.294.801.049.128.102.251.156.375.071.163.16.327.223.494.057.164.142.268.36.264 1.239-.008 2.481-.004 3.72-.004.37 0 .37 0 .37-.335 0-14.92 0-29.845.004-44.765 0-.28-.058-.39-.437-.387-7.55.004-15.099.004-22.649.004-.066 0-.133-.004-.2 0-.147.008-.205.096-.147.211.125.252.245.503.365.754.054.112.094.223.138.335.058.155.107.315.174.47.116.268.24.535.356.802.112.26.214.518.321.777.107.256.218.507.33.762l.36.813c.103.24.214.475.29.722.076.251.151.327.44.327 4.535 0 9.074.004 13.608-.004.508 0 .998.036 1.456.243.339.152.664.327.904.594.232.26.468.523.544.862.067.307.17.614.174.925 0 .255-.116.51-.196.761-.13.419-.423.734-.775 1.025a2.617 2.617 0 0 1-.927.494c-.347.1-.735.132-1.104.132-3.844.008-7.693.004-11.536.008-.116 0-.227.012-.357.016.054.135.094.247.134.355.053.14.107.279.17.414.07.16.155.311.222.47.107.248.196.503.303.75.12.292.245.579.37.866.11.255.222.506.33.761.101.235.217.467.293.71.098.315.138.355.486.355 3.309 0 6.623 0 9.932.004.637 0 1.185.203 1.688.562.668.47.909 1.104.98 1.814.018.172-.053.351-.085.527-.058.354-.24.67-.48.945-.228.255-.49.478-.83.63-.36.163-.72.303-1.122.307-2.659.012-5.313.008-7.972.008h-.357c.018.087.023.147.045.199.116.275.236.546.352.821.098.235.182.475.29.706.11.247.253.486.36.738.111.263.192.53.29.797.044.124.102.243.156.363.115.263.249.522.343.793.084.248.11.283.405.283 1.862 0 3.728.005 5.59-.004.458 0 .89.048 1.313.22.508.203.918.49 1.212.909.134.187.254.395.316.61.09.315.17.646.152.965a2.025 2.025 0 0 1-.343 1.037 3.14 3.14 0 0 1-.495.57 3.693 3.693 0 0 1-.663.422c-.299.164-.633.28-.98.283-1.305.012-2.615.008-3.92.012-.115.004-.218.004-.36.004Z" fill="#CA0026"/></svg>