<svg width="60" height="60" fill="none" xmlns="http://www.w3.org/2000/svg"><g clip-path="url(#a)" fill="#CA0026"><path d="M44.627 0h.758c.047.04.091.088.147.112.207.1.446.15.618.29.474.395.72.917.72 1.542v1.573c0 .072.005.144.009.22.064.004.107.012.155.012 1.447.055 2.9-.12 4.347.107.208.032.407.012.622.1.335.14.71.183 1.032.378.27.163.566.295.825.478.275.195.53.418.769.653.354.351.653.75.888 1.191.104.196.196.399.28.602.055.135.079.283.13.422.06.172.168.33.196.506.064.414.128.837.128 1.255.008 7.716.004 15.428.004 23.144 0 .068-.009.136-.013.231-2.932-1.904-6.104-2.88-9.578-2.824-3.463.056-6.615 1.095-9.512 3.08.02-.088.024-.112.032-.136.104-.227.263-.442.303-.681.092-.53.012-1.044-.327-1.486-.378-.49-.86-.78-1.502-.78-1.247.003-2.498.007-3.745-.005-.43-.004-.81.12-1.148.367a1.83 1.83 0 0 0-.741 1.139c-.108.542-.004 1.08.35 1.518.363.45.833.736 1.439.736 1.323 0 2.642 0 3.965-.004.127 0 .255-.063.386-.091.056-.012.116 0 .172 0-.22.235-.467.402-.678.61a60.536 60.536 0 0 0-1.785 1.86c-.267.29-.486.63-.717.952-.168.235-.323.478-.478.72-.144.216-.291.431-.423.65-.131.22-.25.442-.37.67-.108.207-.204.418-.3.625a18.265 18.265 0 0 0-.589 1.434c-.095.255-.195.51-.275.773-.06.207-.087.422-.135.633-.04.171-.088.339-.132.51-.067.25-.143.498-.195.753a7.999 7.999 0 0 0-.12.753c-.047.434-.12.868-.115 1.302.008.889-.08 1.777.076 2.673.087.518.131 1.044.239 1.562.075.358.131.717.247 1.063.103.323.175.654.263.98.036.132.087.26.135.387.1.25.195.506.303.753.104.239.215.474.327.713.087.19.175.386.267.573.091.188.179.375.283.554.21.35.434.693.681 1.084h-.33c-10.13 0-20.254 0-30.383.004-.458 0-.88-.088-1.271-.339a1.647 1.647 0 0 1-.75-1.02c-.015-.056-.071-.1-.111-.147V8.924c.036-.045.096-.08.1-.128.031-.287-.008-.582.131-.86.08-.16.092-.36.144-.535a1.46 1.46 0 0 1 .131-.322c.1-.187.223-.359.323-.546a4.81 4.81 0 0 1 .872-1.143 4.84 4.84 0 0 1 1.208-.893c.195-.103.398-.195.601-.282.144-.06.295-.088.439-.14.175-.064.342-.18.518-.195a27.15 27.15 0 0 1 1.972-.12c.9-.02 1.805-.004 2.706-.004h.23c0-.513.009-1.003-.003-1.493-.008-.427.032-.833.23-1.22.248-.477.607-.792 1.128-.927.056-.016.1-.072.148-.112h.757c.048.04.092.088.143.112.204.1.443.159.614.298a1.9 1.9 0 0 1 .721 1.546c-.004.526 0 1.048 0 1.573 0 .072.008.14.008.208h7.515c0-.522.008-1.024-.004-1.526-.012-.418.036-.82.24-1.2.246-.457.601-.764 1.107-.9.064-.015.116-.071.175-.111h.718c.035.036.067.088.107.104.124.051.255.083.379.135.267.112.494.299.641.53.251.39.39.824.375 1.306-.02.482-.004.968-.004 1.454v.216h7.51c0-.514.009-1.016-.003-1.518-.008-.407.032-.793.223-1.167.247-.49.61-.81 1.14-.948.055-.016.1-.072.147-.112h.717c.052.036.096.088.151.112.208.095.45.143.622.282.462.379.725.88.737 1.49.004.307 0 .61 0 .916v.94h7.515v-.227c0-.446.008-.888-.004-1.334-.008-.402.044-.78.231-1.143.243-.474.606-.785 1.12-.924.06-.02.104-.076.151-.116Zm7.874 14.994c.008-.044.016-.072.016-.096 0-1.932 0-3.864-.012-5.796 0-.175-.064-.362-.151-.517a2.974 2.974 0 0 0-.43-.57c-.296-.315-.674-.51-1.1-.518-1.268-.02-2.539-.008-3.806-.008-.044 0-.087.012-.151.02v.227c0 .486-.004.968 0 1.454.004.347-.056.673-.207.992-.311.657-.857.964-1.542 1.044-.208.023-.43-.036-.634-.1a2.145 2.145 0 0 1-.638-.307c-.486-.378-.7-.904-.713-1.513-.012-.526-.004-1.048-.004-1.574v-.223h-7.515c0 .187.008.358 0 .53-.04.637.116 1.286-.115 1.908-.076.207-.18.414-.311.59-.247.322-.586.501-.98.625-.439.14-.83.06-1.22-.108a1.665 1.665 0 0 1-.808-.709c-.152-.263-.275-.538-.291-.828-.032-.598-.012-1.195-.012-1.793v-.219h-7.511v.227c0 .466-.004.928 0 1.394.008.45-.088.86-.327 1.255-.315.526-.8.741-1.359.849-.354.067-.689-.048-1.008-.2-.657-.314-.98-.864-1.036-1.557-.048-.574-.012-1.155-.012-1.733 0-.076-.008-.155-.012-.231-.047-.008-.075-.016-.1-.016-2.418 0-4.833 0-7.251-.004-.14 0-.164.06-.164.18.004.517-.004 1.035.004 1.553a2.14 2.14 0 0 1-.21.968c-.32.665-.877.972-1.575 1.036-.207.02-.426-.056-.633-.104a1.554 1.554 0 0 1-.945-.653 2.189 2.189 0 0 1-.378-1.367c.02-.462.004-.928.004-1.394 0-.068-.008-.14-.012-.199-.04-.008-.052-.016-.064-.016-1.323 0-2.642-.004-3.965.008a.989.989 0 0 0-.482.135c-.215.124-.43.275-.601.455-.3.314-.506.693-.506 1.143-.004 1.864-.004 3.732-.004 5.597 0 .052.008.103.012.167 16.265-.004 32.502-.004 48.759-.004Zm-41.26 33.757v.004c.597 0 1.195-.009 1.793.003.514.012.956-.143 1.342-.474.331-.286.542-.653.614-1.067.1-.586-.04-1.136-.45-1.59-.347-.386-.773-.633-1.303-.633a448.902 448.902 0 0 0-4.02 0c-.331 0-.622.14-.897.323a1.9 1.9 0 0 0-.801 1.15 1.84 1.84 0 0 0 .123 1.176c.1.223.28.414.45.594.296.31.674.494 1.1.51.678.02 1.363.004 2.049.004Zm11.272.004c0-.005 0-.005 0 0 .685-.005 1.367.008 2.052-.009.195-.004.394-.08.586-.143a.838.838 0 0 0 .275-.163c.247-.207.522-.395.625-.733.064-.215.18-.422.204-.642.023-.25.063-.517-.092-.764-.084-.136-.08-.331-.175-.45-.439-.562-.989-.889-1.738-.869-1.16.028-2.323.012-3.482.004-.359 0-.69.056-1.012.227-.542.287-.873.737-.977 1.319-.103.573.02 1.12.435 1.573.362.395.793.642 1.335.65.649.008 1.306 0 1.964 0ZM11.244 37.489c-.697 0-1.394-.008-2.091.008a1.235 1.235 0 0 0-.558.143c-.211.116-.399.283-.582.439-.287.247-.446.59-.502.944-.092.581.028 1.131.45 1.585.355.387.777.634 1.307.638 1.303.008 2.602 0 3.905.003.399 0 .753-.123 1.068-.358.458-.343.725-.8.769-1.378.044-.598-.163-1.1-.586-1.514-.315-.307-.697-.502-1.143-.51-.682-.012-1.36 0-2.037 0Zm-.007-14.994c-.626 0-1.248.008-1.873-.004a1.705 1.705 0 0 0-1.104.363c-.474.366-.769.836-.769 1.454 0 .21-.032.43.1.629.1.147.131.338.235.482.183.263.394.494.709.621.223.092.434.207.685.207 1.088 0 2.176.012 3.264-.003.414-.005.84.1 1.239-.108.131-.068.303-.072.418-.16.415-.31.738-.704.845-1.222.104-.49.02-.98-.259-1.395-.383-.57-.92-.892-1.642-.876-.613.024-1.23.012-1.848.012Zm33.757 3.756c.598.005 1.195-.008 1.793.008.51.012.948-.139 1.339-.474.339-.29.554-.657.622-1.08.095-.577-.036-1.118-.447-1.569-.358-.39-.78-.641-1.323-.641-1.227-.004-2.454 0-3.681-.004-.371-.004-.722.036-1.056.223-.39.22-.67.534-.861.924-.155.323-.163.677-.116 1.024.036.27.128.538.307.757.208.25.399.522.733.625.208.064.415.192.622.2.685.023 1.375.008 2.068.008ZM22.509 41.25c.625 0 1.247-.008 1.873.005a1.7 1.7 0 0 0 .86-.22c.654-.35.985-.892 1.028-1.629a1.693 1.693 0 0 0-.151-.777c-.096-.223-.279-.414-.442-.601a1.516 1.516 0 0 0-1.132-.534c-1.315-.016-2.63 0-3.94-.012a1.737 1.737 0 0 0-.965.275c-.45.287-.777.709-.869 1.247-.087.53-.008 1.047.34 1.486.374.474.852.757 1.47.76h1.928Zm-11.268-7.5c.565 0 1.127-.005 1.693.003.379.005.733-.035 1.084-.223.538-.29.856-.74.972-1.306a1.77 1.77 0 0 0-.45-1.598c-.363-.398-.813-.633-1.37-.633-1.336.004-2.67-.004-4.005.008-.188 0-.395.048-.558.135a3.172 3.172 0 0 0-.59.443c-.299.259-.454.613-.506.988-.04.282-.044.57.072.868.1.255.207.486.386.681.35.39.785.625 1.32.63.649.008 1.302.004 1.952.004Zm11.252-7.498c.685 0 1.367.012 2.052-.008.2-.003.402-.075.598-.135a.749.749 0 0 0 .27-.16c.256-.214.527-.418.642-.752.064-.191.18-.375.192-.566.02-.27.035-.542-.076-.824-.1-.251-.207-.482-.383-.682-.306-.35-.693-.61-1.16-.617-1.414-.024-2.828-.012-4.243-.004-.295 0-.566.131-.805.303-.362.259-.63.585-.757 1.035-.16.57-.091 1.092.231 1.566.18.267.399.506.726.633.23.092.446.212.7.212h2.013Zm.004 7.497c.59 0 1.18.009 1.773-.003.231-.005.454.004.69-.092.239-.096.466-.2.657-.367.41-.362.645-.808.645-1.362 0-.211-.008-.414-.091-.625-.1-.243-.2-.47-.375-.662-.366-.406-.809-.645-1.366-.641-1.268.004-2.535.004-3.802-.004a1.791 1.791 0 0 0-1.104.363c-.394.286-.665.677-.745 1.15-.1.586.012 1.14.435 1.602.366.403.805.642 1.359.645.637 0 1.279-.004 1.924-.004Zm11.272-11.253c-.637 0-1.275.008-1.912-.004-.41-.008-.773.12-1.088.363-.478.366-.773.84-.769 1.466.004.21-.04.426.1.629.095.14.123.326.223.47.187.27.402.518.729.63.207.071.418.19.625.195 1.343.02 2.682.003 4.025.015.343.005.653-.111.92-.274a1.86 1.86 0 0 0 .861-1.215c.1-.486.032-.98-.251-1.395-.37-.541-.88-.884-1.574-.876-.626 0-1.255-.004-1.889-.004Z"/><path d="M46.062 59.992c-.056-.036-.108-.091-.163-.1-.14-.02-.28-.003-.419-.015-.398-.04-.8-.064-1.187-.14-.37-.072-.725-.207-1.088-.315-.299-.087-.602-.159-.893-.27-.39-.152-.773-.327-1.16-.502-.19-.088-.374-.188-.561-.287a6.036 6.036 0 0 1-.494-.279c-.151-.096-.29-.203-.438-.307-.251-.179-.514-.342-.757-.538a24.29 24.29 0 0 1-1.216-1.02c-.239-.222-.446-.481-.657-.736-.315-.383-.646-.757-.925-1.167-.31-.455-.577-.94-.844-1.422-.2-.359-.379-.733-.542-1.108-.112-.25-.188-.518-.267-.785-.092-.302-.152-.613-.251-.908a4.34 4.34 0 0 1-.231-1.068c-.04-.486-.156-.968-.192-1.453-.04-.518-.08-1.04.044-1.562.056-.247.02-.514.044-.773.032-.323.068-.65.131-.968.06-.31.144-.621.236-.924.091-.29.215-.574.318-.86.092-.248.16-.506.26-.75.115-.278.246-.553.386-.824a9.01 9.01 0 0 1 .426-.769c.172-.27.359-.53.546-.793.163-.23.315-.47.498-.68.43-.49.825-1.016 1.343-1.423.24-.187.446-.41.681-.601.271-.227.546-.45.841-.65.267-.183.558-.338.845-.49a21.29 21.29 0 0 1 1.171-.585c.3-.136.61-.24.917-.355.287-.107.57-.23.86-.318.228-.068.467-.092.702-.144.318-.068.633-.155.956-.215.18-.032.37-.02.558-.028.594-.032 1.187-.091 1.777-.091.466 0 .94.027 1.395.127.247.052.49.06.733.108.215.04.418.135.63.199.167.051.338.08.505.131.439.144.881.28 1.311.454.45.184.897.39 1.327.618.287.151.55.35.821.534.35.243.721.47 1.044.745.494.418 1.008.816 1.415 1.33.306.39.645.753.944 1.147.211.275.386.582.57.877.187.294.39.585.546.896.19.382.342.78.506 1.175.107.263.219.522.314.793.064.175.092.362.14.546.068.259.143.517.215.776a.472.472 0 0 1 .016.08c.048.518.092 1.032.147 1.55.008.071.068.135.104.203v1.633c-.036.04-.096.08-.1.123-.027.447-.012.893-.135 1.331-.072.267-.092.55-.144.82-.031.164-.08.323-.131.483-.064.195-.132.39-.2.585-.087.255-.163.522-.27.769-.164.379-.35.745-.534 1.111-.163.32-.319.646-.51.949a9.408 9.408 0 0 1-.678.92c-.378.462-.745.932-1.167 1.35-.418.418-.897.78-1.35 1.167-.18.152-.355.307-.547.438-.207.14-.434.255-.653.383-.136.08-.267.171-.407.243a16.21 16.21 0 0 1-.792.386c-.32.144-.638.291-.965.41-.283.104-.582.18-.872.267-.363.108-.718.247-1.088.315-.419.08-.845.1-1.267.144-.112.012-.227-.004-.339.016-.06.011-.112.067-.163.1-.534-.009-1.08-.009-1.626-.009Zm2.705-15.01v-.287c0-1.824.008-3.653-.016-5.477a1.72 1.72 0 0 0-.267-.856 1.882 1.882 0 0 0-1.199-.853c-.494-.103-1.004-.032-1.418.259-.558.394-.88.94-.877 1.67.016 2.457.008 4.91.004 7.369 0 .502.144.94.474 1.31.347.383.773.634 1.295.638 2.582.008 5.168.008 7.75-.004.211 0 .423-.08.626-.14a.828.828 0 0 0 .279-.16c.25-.214.53-.406.637-.748.06-.191.18-.37.196-.566.023-.279.071-.573-.092-.844-.08-.132-.076-.319-.167-.434-.423-.538-.949-.88-1.678-.873-1.753.016-3.507.004-5.26.004-.083-.008-.171-.008-.287-.008Z"/></g><defs><clipPath id="a"><path fill="#fff" d="M0 0h60v60H0z"/></clipPath></defs></svg>