<svg width="60" height="60" fill="none" xmlns="http://www.w3.org/2000/svg"><g clip-path="url(#a)" fill="#CA0026"><path d="M52.093 60H7.89c-.052-.036-.1-.108-.151-.108a3.836 3.836 0 0 1-1.235-.239c-.342-.127-.7-.21-1.04-.354-.393-.167-.772-.375-1.15-.574-.657-.339-1.199-.833-1.724-1.343a7.792 7.792 0 0 1-1.147-1.41c-.18-.283-.33-.586-.486-.884C.86 54.9.785 54.705.7 54.51c-.072-.163-.155-.327-.211-.494-.06-.183-.096-.37-.144-.558-.071-.31-.147-.617-.215-.928-.051-.243-.087-.49-.131-.737.004-14.53.004-29.056.004-43.586.04-.18.088-.358.12-.538.051-.322.091-.65.135-.972.004-.02.012-.04.016-.056.107-.298.21-.597.318-.892.088-.243.168-.49.28-.721.123-.26.27-.51.425-.753.243-.37.458-.765.757-1.088.458-.494.96-.948 1.47-1.39.266-.231.569-.438.883-.602.443-.23.908-.426 1.374-.617.295-.124.594-.243.9-.319.327-.08.673-.096 1.008-.151.072-.012.135-.072.2-.108h44.243c.032.036.056.096.092.1.286.051.577.087.868.135.223.04.45.068.661.143.362.128.72.267 1.067.439.466.23.94.462 1.37.757.406.279.777.621 1.135.964.442.422.86.868 1.159 1.414.127.235.319.438.438.681.187.383.362.773.502 1.176.163.47.326.952.414 1.442.092.506.096 1.024.136 1.538.007.111 0 .227 0 .338 0 12.881.003 25.761-.008 38.642 0 1.562.123 3.127-.104 4.685-.044.299-.092.598-.143.893-.028.14-.068.279-.116.414-.103.29-.211.586-.33.872a7.847 7.847 0 0 1-.37.785c-.128.231-.284.443-.435.662-.175.255-.33.522-.534.753-.442.498-.892.992-1.45 1.37-.381.26-.768.522-1.174.745-.354.195-.733.339-1.111.49-.299.12-.597.243-.908.315-.342.08-.697.096-1.047.147-.052 0-.1.064-.152.1ZM39.53 50.51c0 .016.004.028.004.044.494-.056.992-.108 1.485-.175.168-.02.327-.072.49-.12a3.84 3.84 0 0 0 .363-.12c.12-.04.242-.075.358-.131.203-.1.406-.211.605-.323.363-.207.741-.39 1.076-.633a7.775 7.775 0 0 0 1.88-1.94c.298-.443.58-.9.824-1.379.17-.335.27-.705.39-1.06.115-.342.25-.685.323-1.04.083-.41.107-.836.155-1.255.008-.06.016-.119.02-.179.012-.45.051-.9.028-1.346-.024-.43-.112-.857-.18-1.287a7.377 7.377 0 0 0-.147-.73c-.048-.179-.131-.35-.195-.525-.044-.12-.08-.243-.124-.363-.087-.235-.163-.478-.27-.705-.092-.2-.215-.386-.327-.578-.14-.235-.263-.478-.422-.7a16.406 16.406 0 0 0-.74-.93c-.43-.51-.953-.923-1.49-1.306a6.215 6.215 0 0 0-.749-.45 7.364 7.364 0 0 0-.852-.375 7.712 7.712 0 0 0-.944-.263c-.382-.08-.773-.163-1.163-.19-.458-.033-.924-.037-1.378.087-.29.08-.609.064-.892.155-.466.152-.916.359-1.37.546-.581.243-1.09.614-1.565 1.02a9.04 9.04 0 0 0-1.194 1.255c-.323.406-.562.88-.845 1.323a3.87 3.87 0 0 0-.478 1.043c-.035.128-.091.252-.135.375-.064.175-.143.347-.191.522-.064.239-.104.486-.144.729-.071.446-.175.892-.195 1.343-.027.605-.071 1.215.076 1.82.104.43.147.877.25 1.307.088.367.212.73.351 1.084.136.346.303.677.47 1.008.152.295.307.593.494.872a8.12 8.12 0 0 0 1.12 1.335c.377.37.788.697 1.218.996.219.151.466.267.705.386.183.092.374.172.561.255.16.072.315.152.482.208.187.06.386.103.581.143.363.076.725.155 1.092.211.187.06.39.036.589.036Zm-11.051-32c.012 0 .024-.004.04-.004-.056-.59-.104-1.18-.168-1.769-.02-.2-.08-.394-.123-.594-.004-.02-.012-.035-.02-.055-.064-.196-.127-.395-.195-.59-.096-.283-.187-.57-.299-.845-.115-.274-.25-.541-.39-.808a7.775 7.775 0 0 0-.398-.713c-.128-.196-.295-.36-.426-.55-.323-.47-.725-.865-1.155-1.231a9.937 9.937 0 0 0-.9-.686c-.207-.143-.442-.25-.67-.362-.175-.088-.358-.168-.537-.247-.163-.072-.326-.156-.498-.211-.187-.06-.382-.1-.577-.144-.339-.072-.673-.155-1.012-.207-.187-.028-.386 0-.577-.016-.538-.044-1.063.064-1.593.136a2.38 2.38 0 0 0-.53.127c-.27.1-.537.215-.8.33-.283.124-.59.22-.84.391a15.72 15.72 0 0 0-1.514 1.152c-.362.318-.677.705-.98 1.087-.222.283-.41.602-.589.92a7.646 7.646 0 0 0-.474.937c-.147.37-.262.757-.374 1.14-.12.402-.255.8-.319 1.21-.075.486-.12.984-.12 1.474 0 .554.065 1.104.112 1.654.02.219.08.43.12.65.004.011.004.027.008.04.068.206.143.413.207.62.091.291.151.594.27.873.156.363.351.701.53 1.052.26.502.582.952.944 1.382.446.526.916 1.02 1.502 1.395.27.171.505.406.792.546.542.259 1.1.498 1.669.685.406.131.848.183 1.274.239.661.084 1.318-.04 1.975-.112.024-.004.052-.016.076-.023.219-.064.442-.12.657-.192.279-.091.562-.175.824-.303.311-.147.618-.318.904-.506.379-.247.761-.502 1.104-.796a7.186 7.186 0 0 0 1.569-1.893c.175-.306.39-.59.53-.912.194-.442.35-.904.501-1.367.123-.374.243-.753.319-1.135.075-.39.1-.797.131-1.195.032-.188.02-.379.02-.574Zm-7.045 27.876c-.04.562.151 1.008.53 1.359.151.14.306.295.533.339.243.047.494.19.717.155.295-.052.605-.088.888-.279.275-.187.486-.402.63-.685.103-.2.17-.41.262-.614.104-.23.22-.458.319-.689.1-.231.171-.474.27-.71.216-.497.443-.987.654-1.485.14-.327.255-.665.382-.996.04-.108.084-.215.132-.323.107-.247.223-.494.33-.74.092-.22.175-.443.267-.662.104-.243.215-.482.319-.73.127-.302.242-.613.366-.916.147-.362.302-.729.454-1.091.048-.112.091-.223.14-.331.107-.239.222-.474.326-.717.095-.223.171-.454.267-.681.139-.323.29-.642.426-.969.131-.318.25-.64.378-.96.187-.45.378-.896.566-1.346.047-.116.087-.24.139-.355.103-.235.223-.466.322-.705.096-.231.176-.466.271-.697.104-.251.223-.494.327-.745.123-.3.235-.602.358-.9.148-.36.307-.71.458-1.068.048-.112.084-.232.136-.343.107-.235.227-.462.326-.697.096-.231.171-.47.267-.697.135-.32.29-.63.426-.953.136-.322.251-.653.383-.976.187-.466.382-.924.577-1.39.048-.112.091-.227.14-.335.103-.23.218-.454.314-.685.096-.231.171-.47.27-.701.14-.339.295-.674.439-1.008.091-.215.167-.434.263-.65.139-.322.298-.633.43-.96.135-.33.247-.67.382-1 .135-.322.299-.63.434-.948.175-.418.327-.849.506-1.267.215-.506.446-1.008.665-1.51.044-.104.088-.211.123-.319.052-.143.088-.294.148-.434.1-.239.263-.462.306-.705.104-.578.036-1.147-.374-1.606-.374-.422-.856-.657-1.426-.621-.247.016-.493.115-.724.207-.323.127-.57.383-.721.673-.271.518-.478 1.072-.71 1.61-.115.267-.23.534-.342.805-.047.115-.091.235-.135.354-.052.136-.088.28-.147.415-.104.235-.223.466-.323.705-.096.23-.175.47-.27.701-.144.347-.295.69-.439 1.036-.084.203-.16.406-.25.61-.104.238-.224.47-.327.713-.096.227-.167.466-.26.697-.107.267-.23.526-.342.793-.051.12-.095.239-.147.358-.103.235-.215.466-.315.701-.103.243-.203.49-.306.733a88.24 88.24 0 0 1-.721 1.678 9.135 9.135 0 0 0-.14.35c-.051.144-.091.291-.147.43-.107.255-.223.51-.33.765-.092.212-.172.43-.263.642-.14.33-.287.661-.43.992-.092.215-.172.434-.263.645-.104.24-.22.47-.319.713-.095.228-.17.467-.262.694-.108.259-.227.514-.339.773-.052.123-.092.255-.147.378-.104.235-.215.462-.319.697a23.83 23.83 0 0 0-.307.733l-.39.965c-.087.219-.171.442-.267.66-.1.236-.215.467-.314.702-.06.14-.096.287-.16.426-.1.227-.219.447-.31.678-.136.326-.247.665-.387.992-.17.402-.358.797-.537 1.199-.16.367-.315.733-.47 1.104-.048.115-.092.235-.135.35-.052.136-.092.279-.152.41-.103.24-.215.475-.318.71-.104.243-.203.486-.303.729-.131.322-.267.645-.398.968-.088.215-.168.434-.26.645-.099.235-.218.459-.318.694-.095.227-.17.462-.258.693a6.011 6.011 0 0 1-.144.334c-.1.215-.21.43-.31.65a15.7 15.7 0 0 0-.307.753c-.12.362-.339.705-.283 1.084Z"/><path d="M43.959 41.506c-.016.339.004.681-.052 1.012a8.013 8.013 0 0 1-.306 1.127c-.1.291-.235.57-.367.85-.21.457-.517.848-.868 1.206-.346.355-.728.666-1.182.869a4.485 4.485 0 0 1-.9.295c-.326.067-.669.123-.995.1-.65-.049-1.27-.232-1.812-.61-.302-.207-.613-.423-.852-.694-.35-.394-.693-.812-.896-1.314-.143-.35-.306-.697-.426-1.056a3.328 3.328 0 0 1-.139-.713c-.048-.49-.108-.984-.1-1.474.008-.359.116-.721.184-1.076.043-.223.08-.454.163-.665.135-.347.282-.69.462-1.012a4.87 4.87 0 0 1 .911-1.164c.323-.302.665-.573 1.075-.753.247-.107.494-.223.745-.318.084-.032.183-.008.275-.024.187-.028.37-.068.557-.096a.664.664 0 0 1 .2 0c.146.024.29.08.437.088.303.012.57.12.848.223.613.23 1.107.617 1.553 1.072.31.318.553.693.76 1.091.156.303.295.614.43.928.06.144.112.3.132.45.08.547.143 1.096.21 1.642a.095.095 0 0 1-.047.016Zm-27.898-23.02c0-.319-.028-.641.008-.956.028-.267.123-.53.195-.793a4.95 4.95 0 0 1 .143-.458c.084-.231.156-.466.267-.681.12-.231.267-.459.434-.662.243-.302.482-.61.769-.868.278-.251.593-.474.927-.646.29-.151.621-.239.944-.302.326-.064.669-.112.995-.084.494.04.968.167 1.418.402.438.231.832.51 1.17.865.319.33.61.685.808 1.107.128.267.231.542.363.805.131.267.183.55.247.837.111.506.235 1.012.199 1.534-.028.462-.064.924-.207 1.374-.068.211-.08.434-.144.646a3.456 3.456 0 0 1-.25.617 6.778 6.778 0 0 1-.542.873c-.235.306-.486.613-.776.864a4.635 4.635 0 0 1-1.028.681c-.31.144-.645.291-1.015.275-.135-.003-.275.06-.414.084a.77.77 0 0 1-.235 0c-.167-.024-.33-.076-.497-.087-.267-.02-.514-.1-.749-.224-.243-.127-.506-.227-.737-.374a4.19 4.19 0 0 1-1.226-1.2c-.179-.274-.33-.57-.49-.86-.25-.446-.362-.932-.49-1.426-.119-.454-.059-.9-.087-1.343Z"/></g><defs><clipPath id="a"><path fill="#fff" d="M0 0h60v60H0z"/></clipPath></defs></svg>