<svg width="100" height="100" fill="none" xmlns="http://www.w3.org/2000/svg"><path d="M96.33 53.1c-.057.19-.142.38-.17.57-.152 1.42-.209 2.85-.435 4.25-.455 2.81-1.136 5.57-2.167 8.21-.397 1.01-.813 2.02-1.333 2.95-.7 1.25-2.138 1.81-3.5 1.16-1.296-.62-1.93-2.2-1.514-3.41.303-.86.72-1.67 1.013-2.52.51-1.45 1.05-2.9 1.428-4.4.965-3.86 1.248-7.81 1.097-11.79-.114-2.87-.492-5.69-1.192-8.47-.53-2.1-1.277-4.09-2.204-6.03-.728-1.51.114-3.42 1.637-3.98 1.352-.5 2.847.32 3.462 1.62.955 2.05 1.769 4.15 2.327 6.35.33 1.28.605 2.57.804 3.88.255 1.7.397 3.41.605 5.12.01.1.104.18.151.28-.01 2.08-.01 4.15-.01 6.21Z" fill="url(#a)"/><path d="M1.74 46.9c.057-.19.152-.39.161-.58.066-1.94.379-3.85.729-5.75.425-2.3 1.04-4.54 1.872-6.71.398-1.03.823-2.05 1.363-3 .7-1.23 2.147-1.75 3.48-1.11 1.296.62 1.93 2.22 1.495 3.42-.303.84-.719 1.63-1.012 2.47-.464 1.3-.927 2.6-1.287 3.93-1.068 3.98-1.362 8.05-1.23 12.16.086 2.65.426 5.27 1.013 7.85a31.72 31.72 0 0 0 2.365 6.75c.747 1.54-.085 3.46-1.608 4.02-1.381.5-2.838-.32-3.462-1.62a37.924 37.924 0 0 1-2.706-7.83c-.274-1.19-.463-2.4-.624-3.61-.17-1.28-.265-2.57-.407-3.85-.01-.11-.104-.22-.151-.33.01-2.07.01-4.14.01-6.21Z" fill="url(#b)"/><path d="M73.978 50.06c0 10.88-.01 21.76.01 32.65 0 2.32-.473 4.48-1.693 6.41-1.173 1.86-2.743 3.24-4.73 4.07-1.305.54-2.658.78-4.058.78-9.648-.01-19.296 0-28.944 0-3.66 0-6.574-1.57-8.702-4.71-.681-1.01-1.23-2.13-1.41-3.37-.16-1.09-.34-2.2-.34-3.3-.02-21.78-.01-43.56-.02-65.34 0-1.9.322-3.72 1.155-5.39.88-1.76 2.147-3.18 3.774-4.22 1.712-1.09 3.566-1.56 5.562-1.56 9.014.01 18.029 0 27.052 0 .71 0 1.42-.01 2.129 0 3.935.1 6.914 1.94 8.92 5.52a10.02 10.02 0 0 1 1.286 4.84c.038 4.32.019 8.63.019 12.95-.01 6.87-.01 13.77-.01 20.67ZM49.045 86.14h3.537c.388-.07.785-.09 1.145-.22 1.163-.42 1.92-1.81 1.74-3.14-.18-1.3-1.324-2.46-2.535-2.47-2.61-.02-5.23-.03-7.841 0-1.24.01-2.431 1.28-2.516 2.59-.133 1.8 1.116 3.23 2.828 3.24 1.21 0 2.43-.01 3.642 0Zm-.01-66.42c1.107 0 2.204.02 3.31-.01.436-.01.88-.06 1.287-.19 1.24-.38 2.053-1.76 1.835-3.15-.217-1.4-1.192-2.44-2.516-2.47-2.61-.08-5.23-.05-7.841-.01-1.296.02-2.479 1.32-2.535 2.69-.076 1.77 1.144 3.13 2.818 3.14h3.642Z" fill="url(#c)"/><path d="M11.776 49.84c.218-1.88.36-3.89.71-5.86a22.876 22.876 0 0 1 2.44-6.96c.568-1.05 1.39-1.66 2.554-1.65 1.097.02 1.92.57 2.422 1.6.425.87.387 1.75.01 2.64-.569 1.34-1.202 2.66-1.628 4.04-.36 1.16-.501 2.41-.643 3.63-.132 1.12-.227 2.25-.16 3.37.084 1.46.302 2.92.51 4.37.274 1.9 1.021 3.62 1.873 5.31.719 1.43.274 3.12-.993 3.92-1.268.8-2.923.43-3.727-.95-.615-1.05-1.164-2.17-1.552-3.33-.52-1.56-.964-3.17-1.248-4.79-.303-1.71-.378-3.46-.568-5.34Z" fill="url(#d)"/><path d="M86.294 50.16c-.218 1.84-.36 3.86-.7 5.83a23.01 23.01 0 0 1-2.431 6.97c-.586 1.08-1.428 1.71-2.63 1.69-1.986-.04-3.254-2.32-2.393-4.21.596-1.32 1.202-2.65 1.637-4.04.35-1.1.53-2.27.652-3.43.142-1.38.227-2.78.17-4.17-.047-1.26-.302-2.52-.491-3.77-.303-1.97-1.07-3.74-1.958-5.48-.672-1.32-.133-3.05 1.116-3.8a2.642 2.642 0 0 1 3.604.85 15.601 15.601 0 0 1 1.835 4.09c.397 1.39.804 2.78 1.04 4.2.265 1.67.36 3.39.549 5.27Z" fill="url(#e)"/><defs><linearGradient id="a" x1="87.085" y1="70.513" x2="106.174" y2="67.259" gradientUnits="userSpaceOnUse"><stop stop-color="#E5A440"/><stop offset=".447" stop-color="#EFC57B"/><stop offset=".976" stop-color="#E7AC4E"/></linearGradient><linearGradient id="b" x1="1.731" y1="70.499" x2="20.802" y2="67.251" gradientUnits="userSpaceOnUse"><stop stop-color="#E5A440"/><stop offset=".447" stop-color="#EFC57B"/><stop offset=".976" stop-color="#E7AC4E"/></linearGradient><linearGradient id="c" x1="24.092" y1="93.97" x2="113.55" y2="55.599" gradientUnits="userSpaceOnUse"><stop stop-color="#E5A440"/><stop offset=".447" stop-color="#EFC57B"/><stop offset=".976" stop-color="#E7AC4E"/></linearGradient><linearGradient id="d" x1="11.776" y1="64.667" x2="28.865" y2="60.952" gradientUnits="userSpaceOnUse"><stop stop-color="#E5A440"/><stop offset=".447" stop-color="#EFC57B"/><stop offset=".976" stop-color="#E7AC4E"/></linearGradient><linearGradient id="e" x1="77.859" y1="64.65" x2="94.953" y2="60.93" gradientUnits="userSpaceOnUse"><stop stop-color="#E5A440"/><stop offset=".447" stop-color="#EFC57B"/><stop offset=".976" stop-color="#E7AC4E"/></linearGradient></defs></svg>