<svg width="100" height="100" fill="none" xmlns="http://www.w3.org/2000/svg"><path d="M65.6 2.153h20.6c.13.058.24.134.38.173.61.172 1.26.258 1.83.507 3.52 1.56 5.3 4.22 5.35 7.934.03 2.01 0 4.02 0 6.029 0 24.117 0 48.225.01 72.342 0 2.622-.93 4.852-2.98 6.603-1.21 1.034-2.61 1.752-4.26 1.943-.11.01-.22.115-.32.172h-72.4c-.11-.057-.21-.153-.32-.172-.99-.096-1.88-.44-2.72-.91-3.02-1.693-4.51-4.239-4.51-7.588 0-26.127 0-52.245-.01-78.372 0-2.067.59-3.923 1.96-5.531 1.15-1.35 2.59-2.307 4.36-2.766.42-.105.83-.24 1.24-.364h20.6c-.01.192-.04.383-.04.565v10.633h-.73c-4.2 0-8.4.019-12.6-.01-1.76-.01-3.08 1.397-3.08 2.919.02 22.49.02 44.97 0 67.46 0 1.551 1.33 2.92 3.08 2.92 19.31-.01 38.63-.01 57.94 0 1.76 0 3.07-1.34 3.07-2.92-.02-22.49-.02-44.97 0-67.46 0-1.57-1.33-2.929-3.07-2.919-4.22.02-8.43.01-12.65.01-.21 0-.42-.02-.69-.03V2.719c0-.191-.03-.373-.04-.565Z" fill="url(#a)"/><path d="M59.8 2.153v16.212c0 .613 0 .613-.65.613H40.21V2.153H59.8Z" fill="url(#b)"/><path d="M76.15 81.003H23.84V19.007c.16-.01.32-.03.48-.03 3.15 0 6.3.01 9.45-.009.45 0 .61.105.59.555-.04.776 0 1.56-.01 2.345-.01 1.474 1.33 2.699 2.84 2.699 8.53.01 17.07.01 25.6 0 1.51 0 2.84-1.215 2.84-2.699-.01-.833.01-1.656 0-2.488 0-.278.07-.402.39-.402 3.33.01 6.67.01 10 .01.03 0 .06.018.13.038v61.977Zm-15.01-11.38c-2.1 0-4.2-.009-6.3.01-.37 0-.75.067-1.11.163-1.55.402-2.39 2-1.86 3.55.39 1.159 1.5 1.886 2.8 1.886 4.2.01 8.39.01 12.59 0 .46 0 .93-.067 1.37-.172 1.39-.345 2.35-2.259 1.81-3.522-.5-1.177-1.55-1.933-3.01-1.914-2.1.029-4.2 0-6.29 0Zm-.03-5.942c2.2 0 4.4-.02 6.59.01 1.42.009 2.88-1.255 2.85-2.814-.02-1.618-1.37-2.785-2.86-2.805a669.24 669.24 0 0 0-13.14.01c-1.19.01-2.14.622-2.62 1.713-.81 1.838.55 3.857 2.63 3.886 2.19.028 4.37 0 6.55 0Zm.01-22.127c1.92 0 3.83.01 5.75-.01.48 0 .96-.057 1.43-.133 1.99-.345 2.82-2.517 1.89-4.077-.62-1.044-1.61-1.426-2.84-1.426-4.13.01-8.26 0-12.4.01-.22 0-.43.009-.65.028-1.84.172-3.06 2.01-2.44 3.675.46 1.234 1.54 1.895 2.91 1.914 2.12.038 4.23.02 6.35.02Zm-.02 10.614c2.15 0 4.3.019 6.45-.01 1.54-.02 2.55-.766 2.9-2.029.32-1.167.1-2.287-1.29-3.168-.62-.392-1.32-.402-2.01-.402-3.87-.01-7.73-.01-11.6 0-.43 0-.87.03-1.3.067-1.81.163-2.99 1.943-2.4 3.608.43 1.197 1.52 1.924 2.95 1.934 2.1.01 4.2 0 6.3 0ZM35.78 34.759c-.49-.478-.92-.938-1.38-1.35-1.2-1.08-3-1.062-4.11-.009-1.09 1.034-1.14 2.92-.03 3.962 1.15 1.082 2.28 2.192 3.42 3.292.61.594 1.39.89 2.22.871.82-.019 1.55-.382 2.14-.957 1.02-.985 2.05-1.962 3.07-2.938.82-.794 1.65-1.579 2.47-2.383.9-.88 1.17-2.105.69-3.158-.47-1.053-1.66-1.809-2.94-1.694-.8.077-1.46.44-2.02.986-1.14 1.1-2.3 2.21-3.53 3.378Zm-1.63 37.573c-.05 1.685 1.44 2.929 2.93 2.9 1.49-.029 2.95-1.359 2.89-2.708-.07-1.647-1.29-2.91-2.99-2.9-1.41.019-2.94 1.282-2.83 2.708Zm2.84-8.651c1.55.01 3.05-1.283 2.98-2.68-.09-1.77-1.27-2.871-2.89-2.928-1.44-.048-2.92 1.224-2.95 2.631-.03 1.733 1.48 3.044 2.86 2.977Zm-2.84-14.337c-.02 1.56 1.38 2.871 2.93 2.814 1.65-.067 2.93-1.292 2.88-2.737-.05-1.608-1.25-2.862-3.01-2.833-1.43.02-2.97 1.34-2.8 2.756Z" fill="url(#c)"/><defs><linearGradient id="a" x1="6.25" y1="97.856" x2="131.994" y2="10.976" gradientUnits="userSpaceOnUse"><stop stop-color="#E5A440"/><stop offset=".447" stop-color="#EFC57B"/><stop offset=".976" stop-color="#E7AC4E"/></linearGradient><linearGradient id="b" x1="40.21" y1="18.978" x2="63.651" y2="-1.643" gradientUnits="userSpaceOnUse"><stop stop-color="#E5A440"/><stop offset=".447" stop-color="#EFC57B"/><stop offset=".976" stop-color="#E7AC4E"/></linearGradient><linearGradient id="c" x1="23.84" y1="81.003" x2="102.817" y2="30.689" gradientUnits="userSpaceOnUse"><stop stop-color="#E5A440"/><stop offset=".447" stop-color="#EFC57B"/><stop offset=".976" stop-color="#E7AC4E"/></linearGradient></defs></svg>