<svg width="100" height="100" fill="none" xmlns="http://www.w3.org/2000/svg"><path d="M66.464 97.45h-1.332c-.048-.059-.086-.155-.143-.165-1.246-.24-1.76-1.145-2.055-2.271-.323-1.213-.637-2.436-.97-3.697H42.337c-.923 0-.676-.087-.952.79-.352 1.116-.59 2.28-.923 3.407-.257.876-.865 1.454-1.722 1.752-.066.02-.104.116-.152.173h-1.427c-.057-.057-.095-.144-.162-.163-.96-.26-1.931-.52-2.901-.78a546.3 546.3 0 0 1-8.258-2.243c-1.161-.318-2.322-.606-3.463-.972-1.104-.347-1.922-1.733-1.703-2.888.19-.982.466-1.954.723-2.927.276-1.058.532-2.117.856-3.157.152-.491 0-.76-.371-1.02-.171-.116-.305-.28-.457-.424-2.93-2.792-5.337-5.968-7.05-9.665-.875-1.887-1.579-3.841-2.007-5.882-.219-1.04-.39-2.098-.58-3.177-.114-.01-.238-.028-.362-.028-2.131-.068-4.034-.751-5.651-2.186-1.323-1.164-2.255-2.58-2.693-4.312-.104-.405-.228-.8-.352-1.204v-1.829c.058-.086.153-.154.181-.25.438-1.579 2.512-2.387 3.93-1.55.989.587 1.455 1.444 1.474 2.57.038 1.753 1.456 3.042 3.12 3.148.267.02.39-.038.429-.346.21-1.964.618-3.88 1.227-5.757a27.92 27.92 0 0 1 3.377-6.95c1.989-2.975 4.434-5.507 7.231-7.711 3.32-2.618 6.964-4.62 10.874-6.151 2.464-.963 4.986-1.762 7.592-2.243 1.266-.231 2.512-.54 3.787-.703a47.301 47.301 0 0 1 4.348-.366c3.025-.135 6.041.173 9.038.558.514.068 1.008.222 1.512.318.495.096.942.077 1.342-.375 1.37-1.55 2.997-2.773 4.785-3.812 3.197-1.858 6.632-2.744 10.294-2.705.514.01 1.076.25 1.523.539.913.577 1.189 1.53 1.189 2.57 0 3.966 0 7.922-.01 11.889 0 .365.105.616.39.856.743.636 1.475 1.28 2.18 1.964 1.521 1.483 2.93 3.061 4.071 4.862.837 1.318 1.608 2.685 2.388 4.043.19.327.39.51.809.5 1.779-.029 3.548-.01 5.327-.01 1.113 0 1.903.51 2.407 1.493.105.192.229.366.333.558v19.542c-.047.029-.133.048-.152.096-.561 1.463-1.36 2.022-2.901 2.031-1.646 0-3.292.02-4.948-.01-.494-.009-.732.155-.951.598-1.694 3.465-3.977 6.478-6.774 9.097-.618.577-1.151 1.078-.647 1.983.01.028 0 .067.01.096.209.809.418 1.617.618 2.426.266 1.02.561 2.04.78 3.08.219 1.03-.656 2.522-1.636 2.84-1.104.347-2.217.645-3.32.953-1.294.356-2.588.693-3.882 1.04-1.522.404-3.045.818-4.567 1.222-.98.26-1.96.52-2.94.79-.066 0-.076.086-.104.144ZM50.29 34.828c0 .01 0 .01 0 0-2.045 0-4.09-.01-6.136.01-1.408.019-2.56 1.25-2.617 2.666-.057 1.665 1.294 2.955 2.855 2.955 3.805 0 7.61.01 11.416-.01a4.85 4.85 0 0 0 1.342-.182c1.075-.308 1.76-1.3 1.874-2.32.19-1.8-1.275-3.177-2.883-3.129-1.95.058-3.9.01-5.85.01Zm23.623 16.009c-.01-.607.02-1.223-.019-1.83a2.733 2.733 0 0 0-.2-.866c-.475-1.136-1.731-1.81-2.968-1.617-1.151.183-2.179 1.184-2.255 2.368-.076 1.28-.095 2.57 0 3.841.105 1.454 1.408 2.464 2.902 2.407 1.265-.048 2.588-1.233 2.55-2.619-.02-.558-.01-1.126-.01-1.684Z" fill="url(#a)"/><path d="M51.717 1.184c.114.058.229.154.352.173 1.789.26 3.34 1.05 4.729 2.195 1.788 1.483 2.978 3.38 3.463 5.65.628 2.937.152 5.7-1.56 8.212-1.104 1.627-2.54 2.811-4.3 3.62a9.596 9.596 0 0 1-5.519.79c-2.759-.415-5.08-1.743-6.755-4.034-2.083-2.84-2.616-6.017-1.588-9.386.97-3.186 3.12-5.352 6.165-6.585.57-.23 1.208-.308 1.817-.462.123-.029.237-.115.352-.173h2.844Z" fill="url(#b)"/><defs><linearGradient id="a" x1="2.73" y1="97.449" x2="108.25" y2="-3.427" gradientUnits="userSpaceOnUse"><stop stop-color="#E5A440"/><stop offset=".447" stop-color="#EFC57B"/><stop offset=".976" stop-color="#E7AC4E"/></linearGradient><linearGradient id="b" x1="40.031" y1="21.936" x2="67.975" y2="1.085" gradientUnits="userSpaceOnUse"><stop stop-color="#E5A440"/><stop offset=".447" stop-color="#EFC57B"/><stop offset=".976" stop-color="#E7AC4E"/></linearGradient></defs></svg>