<svg width="100" height="100" fill="none" xmlns="http://www.w3.org/2000/svg"><path d="M68.092 98.425H9.097c-.068-.058-.137-.135-.224-.155-.576-.145-1.162-.232-1.718-.406-1.845-.57-3.231-1.759-4.276-3.324-1.015-1.508-1.395-3.228-1.395-5.036V11.25c0-1.286.117-2.532.546-3.76.635-1.807 1.786-3.208 3.358-4.243 1.542-1.005 3.29-1.391 5.134-1.391 13.91.01 27.819 0 41.728 0h.654v.676c0 6.273-.01 12.555.01 18.827 0 .502.068 1.044.273 1.498.508 1.15 1.464 1.624 2.713 1.624 6.384-.01 12.777 0 19.161 0 .224 0 .44.019.673.029.01.145.03.232.03.328 0 3.847.01 7.693-.01 11.54a.866.866 0 0 1-.264.57c-3.113 3.093-6.246 6.166-9.37 9.259-2.967 2.928-5.876 5.914-8.902 8.785-2.04 1.923-3.328 4.214-4.129 6.843-.439 1.45-.966 2.89-1.434 4.33-.342 1.043-.791 2.077-.977 3.15-.244 1.43-.136 2.88.537 4.223 1.289 2.571 3.407 3.895 6.267 4.127 1.376.116 2.596-.435 3.846-.84 2.157-.706 4.304-1.44 6.461-2.137 1.63-.522 3.114-1.295 4.373-2.454 1.044-.957 2.05-1.962 3.075-2.938.127-.126.283-.223.488-.387.02.251.029.387.029.531 0 6.775.01 13.55-.01 20.325 0 1.15-.215 2.29-.673 3.364a8.39 8.39 0 0 1-2.792 3.546c-1.152.841-2.401 1.44-3.846 1.595-.097 0-.214.097-.341.155ZM35.764 30.154H23.826c-2.733 0-5.456-.02-8.19.01-1.483.019-2.644 1.265-2.722 2.676-.079 1.547 1.24 2.968 3.074 2.968 13.158-.03 26.316-.01 39.473-.02.38 0 .79-.038 1.142-.164 1.581-.55 2.284-2.117 1.67-3.702-.479-1.227-1.465-1.768-2.783-1.768H35.764Zm-5.74 11.307c-4.636 0-9.263 0-13.9.01-.409 0-.829.068-1.229.174-1.62.435-2.46 2.377-1.689 3.856.596 1.14 1.543 1.634 2.812 1.634 9.263 0 18.526 0 27.789-.01a4.67 4.67 0 0 0 1.327-.184c1.581-.483 2.313-2.078 1.767-3.614-.45-1.257-1.445-1.866-2.792-1.866-4.695-.01-9.39 0-14.085 0Zm-.039 16.981c4.617 0 9.224 0 13.841-.01.43 0 .869-.058 1.279-.174 1.581-.425 2.362-2.077 1.806-3.624-.469-1.285-1.455-1.865-2.919-1.865-9.312 0-18.614 0-27.926.01-.38 0-.78.058-1.142.154-1.532.416-2.537 2.349-1.688 3.895.595 1.083 1.493 1.595 2.723 1.595 4.666.02 9.341.02 14.026.02Zm.03 11.308c4.617 0 9.233 0 13.84-.01.43 0 .87-.067 1.28-.183 1.61-.464 2.313-2.107 1.756-3.615-.488-1.324-1.562-1.856-2.948-1.856-9.282.01-18.555 0-27.838 0-.214 0-.42 0-.634.02-1.494.183-2.46 1.343-2.557 2.628-.127 1.585 1.23 3.016 2.908 3.006 4.734 0 9.468.01 14.193.01Zm17.032 16.98c2.831 0 5.652.02 8.483-.019.517-.01 1.102-.135 1.551-.386 1.328-.745 1.738-2 1.21-3.47-.458-1.266-1.493-1.798-2.81-1.807-5.574-.01-11.147-.01-16.72.01-.362 0-.733.077-1.094.173-1.513.406-2.382 2.194-1.806 3.644a2.94 2.94 0 0 0 2.753 1.856c2.811-.01 5.622 0 8.433 0Z" fill="url(#a)"/><path d="M99.004 36.339c-.107.27-.254.522-.322.802-.293 1.053-.966 1.856-1.708 2.6-1.113 1.121-2.255 2.213-3.358 3.344-.322.328-.527.328-.859 0-2.44-2.445-4.91-4.88-7.37-7.316-.204-.203-.302-.339-.058-.58 1.455-1.401 2.831-2.9 4.373-4.204 1.367-1.15 3.036-1.46 4.832-1.063 1.522.338 2.733 1.082 3.533 2.396.332.561.508 1.209.762 1.817.029.068.117.116.175.174v2.03Z" fill="url(#b)"/><path d="M62.138 58.065c.79-.754 1.542-1.45 2.264-2.165 3.641-3.595 7.272-7.21 10.913-10.814 1.747-1.73 3.494-3.46 5.251-5.18.45-.445.459-.445.947.028 2.43 2.397 4.851 4.804 7.291 7.19.293.29.274.445-.01.726a6280.46 6280.46 0 0 0-18.086 17.918c-.352.348-.557.213-.82-.058-2.48-2.474-4.959-4.939-7.448-7.413-.058-.048-.117-.087-.302-.232Z" fill="url(#c)"/><path d="M58.487 1.827c.498.048.976.058 1.445.145.624.116 1.25.27 1.864.425 1.328.348 2.41 1.121 3.367 2.049 2.655 2.58 5.281 5.19 7.907 7.8a8.953 8.953 0 0 1 2.47 4.56c.136.639.087 1.306.116 1.992H58.487V1.827Z" fill="url(#d)"/><path d="M65.593 69.45c-2.44.812-4.734 1.595-7.038 2.339-.36.116-.77.203-1.132.145-.888-.155-1.327-1.044-1.025-1.943.596-1.759 1.21-3.518 1.806-5.277.215-.638.41-1.275.634-1.98 2.284 2.28 4.53 4.445 6.755 6.716Z" fill="url(#e)"/><defs><linearGradient id="a" x1="1.484" y1="98.425" x2="119.346" y2="29.929" gradientUnits="userSpaceOnUse"><stop stop-color="#E5A440"/><stop offset=".447" stop-color="#EFC57B"/><stop offset=".976" stop-color="#E7AC4E"/></linearGradient><linearGradient id="b" x1="85.185" y1="43.331" x2="103.614" y2="29.157" gradientUnits="userSpaceOnUse"><stop stop-color="#E5A440"/><stop offset=".447" stop-color="#EFC57B"/><stop offset=".976" stop-color="#E7AC4E"/></linearGradient><linearGradient id="c" x1="62.138" y1="65.976" x2="97.982" y2="38.407" gradientUnits="userSpaceOnUse"><stop stop-color="#E5A440"/><stop offset=".447" stop-color="#EFC57B"/><stop offset=".976" stop-color="#E7AC4E"/></linearGradient><linearGradient id="d" x1="58.487" y1="18.798" x2="81.491" y2="1.215" gradientUnits="userSpaceOnUse"><stop stop-color="#E5A440"/><stop offset=".447" stop-color="#EFC57B"/><stop offset=".976" stop-color="#E7AC4E"/></linearGradient><linearGradient id="e" x1="56.303" y1="71.952" x2="68.786" y2="62.449" gradientUnits="userSpaceOnUse"><stop stop-color="#E5A440"/><stop offset=".447" stop-color="#EFC57B"/><stop offset=".976" stop-color="#E7AC4E"/></linearGradient></defs></svg>