<svg width="80" height="80" fill="none" xmlns="http://www.w3.org/2000/svg"><g clip-path="url(#a)"><path d="M80 61.042c-.104.288-.208.576-.304.864-.584 1.656-1.68 2.84-3.344 3.375-.808.264-1.68.304-2.6.465v.327c0 1.216-.007 2.424 0 3.64.017 2.576-1.607 4.696-3.991 5.392a4.999 4.999 0 0 1-1.416.191c-5.48.016-10.959.008-16.43.008-.12 0-.232-.016-.408-.032a12.114 12.114 0 0 0-.016-4.647h.568c5.32 0 10.639-.008 15.95.008.648 0 1.08-.32 1.056-1.056-.04-1.304-.016-2.608-.016-3.968h-.736c-1.664.009-3.047-.631-4.143-1.863-.64-.72-1.104-1.552-1.224-2.528-.064-.512-.136-1.024-.136-1.536-.008-5.28-.016-10.559 0-15.83.008-1.72.728-3.136 2.072-4.216.935-.752 2.007-1.176 3.215-1.184 2.2-.016 4.4-.04 6.6 0 2.207.04 4.055 1.352 4.951 3.512.104.248.128.536.2.8.024.072.096.128.144.192C80 48.987 80 55.019 80 61.042Z" fill="url(#b)"/><path d="M42.164.008c.144.048.288.128.432.136 1.512.056 3 .32 4.48.624a32.05 32.05 0 0 1 6.415 2.048 33.3 33.3 0 0 1 6.327 3.623 33.421 33.421 0 0 1 5.975 5.568 34.227 34.227 0 0 1 4.216 6.335 33.244 33.244 0 0 1 2.24 5.48c.288.928.496 1.887.72 2.84.368 1.56.6 3.135.656 4.735.032.768.112 1.536.168 2.336h-4.704c-.272-9.623-4.103-17.487-11.807-23.31-5.56-4.2-11.926-6.063-18.878-5.663-7.663.44-14.198 3.463-19.486 9.03-5.287 5.576-7.863 12.271-8 19.95h-4.71c.047-.743.087-1.471.135-2.191.008-.12.024-.24.04-.36.16-1.216.288-2.44.472-3.648.392-2.512 1.184-4.903 2.192-7.231a33.684 33.684 0 0 1 3.6-6.303 33.242 33.242 0 0 1 5.663-6.088 33.264 33.264 0 0 1 6.256-4.167c1.76-.896 3.567-1.68 5.455-2.232a38.971 38.971 0 0 1 3.704-.888C34.956.408 36.212.304 37.46.136c.104-.016.2-.088.304-.136 1.472.008 2.936.008 4.4.008Z" fill="url(#c)"/><path d="M.008 42.964c.104-.264.208-.536.304-.8.584-1.688 1.72-2.84 3.4-3.4.616-.208 1.304-.288 1.951-.304 1.944-.04 3.888-.008 5.84-.016 2.352-.008 4.103 1.032 5.143 3.128.312.616.52 1.36.52 2.04.04 5.607.064 11.223 0 16.83-.024 2.072-1.408 4.104-3.615 4.84-.656.216-1.376.303-2.072.32-2 .04-4 .007-6 .016-2.271.008-4.255-1.36-5.135-3.52-.104-.256-.128-.536-.2-.8-.024-.096-.096-.168-.144-.256.008-6.023.008-12.055.008-18.078Z" fill="url(#d)"/><path d="M39.044 80c-.288-.096-.576-.2-.872-.28-1.92-.488-3.32-1.648-4.295-3.344-.392-.68-.688-1.407-.76-2.2-.048-.527-.152-1.055-.12-1.575.128-2.136 1.048-3.896 2.736-5.208 1.391-1.08 3-1.576 4.751-1.44 2.112.16 3.84 1.088 5.127 2.792 1.024 1.352 1.512 2.888 1.408 4.568-.128 2.127-1.048 3.88-2.727 5.215-.776.616-1.656.992-2.592 1.28-.24.072-.488.128-.736.192h-1.92Z" fill="url(#e)"/><path d="M55.147 40.516c0 1.304.008 2.608 0 3.912 0 .776-.297 1.431-.896 1.92-.72.583-1.56.72-2.4.335-.824-.376-1.36-1.04-1.376-1.991-.016-1.256 0-2.504 0-3.76v-.472h-.512c-2.656 0-5.303.024-7.96-.008-1.511-.016-2.575-1.168-2.439-2.568.056-.568.384-1.128.672-1.64a694.563 694.563 0 0 1 5.384-9.543 77.003 77.003 0 0 1 2.871-4.64c.648-.96 1.6-1.591 2.784-1.719 1.64-.176 2.992.84 3.544 2.248.207.544.343 1.16.351 1.744.032 3.607.024 7.223.024 10.83 0 .568 0 .576.56.592 1.128.032 2.016.84 2.208 2 .168 1.016-.4 2.08-1.52 2.528-.384.144-.807.152-1.295.232Zm-9.272-4.8c.224.016.336.032.448.032 1.248 0 2.504-.008 3.752.008.352.008.416-.127.416-.44-.008-2.36.008-4.711.008-7.07 0-.137-.024-.265-.032-.4-.032-.009-.072-.009-.104-.017l-4.488 7.887Z" fill="url(#f)"/><path d="M29.605 42.18h1.936c1.536-.008 3.064 0 4.6-.032a2.33 2.33 0 0 1 2.303 2.807c-.16.785-.736 1.648-1.744 1.76-1.16.12-2.336.136-3.495.144-2.304.016-4.616.016-6.92 0-.552-.008-1.128-.024-1.663-.16-.784-.192-1.352-.696-1.656-1.463-.448-1.152.032-2.088.696-2.984 1.983-2.68 3.983-5.352 5.943-8.055.84-1.152 1.608-2.368 2.368-3.576.488-.776.872-1.632.92-2.544.04-.744-.256-1.44-.784-2.008-1.68-1.791-4.504-1.232-5.336 1.08-.184.512-.28 1.048-.656 1.48-.64.744-1.48.896-2.343.704-.792-.176-1.32-.736-1.616-1.536-.296-.816-.032-1.568.232-2.288.752-2.031 2.12-3.543 4.095-4.463 1.304-.608 2.688-.872 4.104-.696 2.696.344 4.76 1.72 6.087 4.096.832 1.495 1.12 3.143.808 4.84-.288 1.543-.92 2.983-1.792 4.287-1.312 1.968-2.695 3.887-4.055 5.823-.64.904-1.304 1.792-2.032 2.784Z" fill="url(#g)"/></g><defs><linearGradient id="b" x1="51.491" y1="75.306" x2="96.61" y2="48.953" gradientUnits="userSpaceOnUse"><stop stop-color="#E5A440"/><stop offset=".447" stop-color="#EFC57B"/><stop offset=".976" stop-color="#E7AC4E"/></linearGradient><linearGradient id="c" x1="6.207" y1="33.741" x2="49.808" y2="-32.241" gradientUnits="userSpaceOnUse"><stop stop-color="#E5A440"/><stop offset=".447" stop-color="#EFC57B"/><stop offset=".976" stop-color="#E7AC4E"/></linearGradient><linearGradient id="d" x1="0" y1="65.622" x2="29.723" y2="51.408" gradientUnits="userSpaceOnUse"><stop stop-color="#E5A440"/><stop offset=".447" stop-color="#EFC57B"/><stop offset=".976" stop-color="#E7AC4E"/></linearGradient><linearGradient id="e" x1="32.991" y1="80" x2="51.992" y2="65.672" gradientUnits="userSpaceOnUse"><stop stop-color="#E5A440"/><stop offset=".447" stop-color="#EFC57B"/><stop offset=".976" stop-color="#E7AC4E"/></linearGradient><linearGradient id="f" x1="39.552" y1="46.9" x2="70.255" y2="30.807" gradientUnits="userSpaceOnUse"><stop stop-color="#E5A440"/><stop offset=".447" stop-color="#EFC57B"/><stop offset=".976" stop-color="#E7AC4E"/></linearGradient><linearGradient id="g" x1="22.027" y1="46.871" x2="50.697" y2="33.449" gradientUnits="userSpaceOnUse"><stop stop-color="#E5A440"/><stop offset=".447" stop-color="#EFC57B"/><stop offset=".976" stop-color="#E7AC4E"/></linearGradient><clipPath id="a"><path fill="#fff" d="M0 0h80v80H0z"/></clipPath></defs></svg>