<svg width="80" height="80" fill="none" xmlns="http://www.w3.org/2000/svg"><g clip-path="url(#a)"><path d="M80 12.725c-.048.102-.128.214-.144.325-.192 1.723-.8 3.266-1.688 4.697-1.128 1.826-2.64 3.18-4.504 4.055-.768.36-1.616.54-2.432.788-.304.095-.616.146-.888.215.84.197 1.72.411 2.608.617v.197c-.304.086-.608.18-.904.266-2.92.857-5.024 2.794-6.392 5.64-.768 1.612-1 3.369-1 5.177.016 14.795.008 29.598.008 44.393v.514c0 .249-.112.369-.344.369-1.12 0-2.24.06-3.36-.017-1.288-.095-2.192-.986-2.288-2.435-.016-.188-.008-.368-.008-.557V34.677c0-1.243.072-2.495.424-3.678.656-2.22 1.784-4.114 3.496-5.597 1.352-1.166 2.848-1.98 4.56-2.323.4-.077.8-.154 1.224-.24-.592-.137-1.16-.274-1.728-.411-1.28-.318-2.44-.926-3.496-1.74-1.568-1.2-2.76-2.752-3.552-4.638a11.486 11.486 0 0 1-.904-4.928c.072-1.878.472-3.669 1.312-5.323C61.208 3.416 63.008 1.76 65.376.8 67.256.04 69.2-.202 71.144.176c3.672.711 6.432 2.785 7.92 6.574.408 1.046.72 2.117.792 3.257.008.112.088.223.136.326.008.797.008 1.594.008 2.392Z" fill="url(#b)"/><path d="M0 33.297c.096-.283.208-.558.288-.84.472-1.638 1.472-2.803 2.904-3.455 2.472-1.131 5.352-.266 6.808 2.46.44.823.6 1.714.664 2.666.104 1.714.216 3.446.48 5.134.288 1.86.864 3.652 1.584 5.383 1.216 2.906 2.864 5.486 4.96 7.74 1.832 1.964 3.88 3.61 6.216 4.8 1.256.644 2.552 1.244 3.88 1.68 2.04.67 4.136 1.046 6.288 1.046 1.232 0 2.424.206 3.488.943 1.072.738 1.824 1.74 2.128 3.069.144.634.312 1.311.272 1.954-.136 2.212-1.104 4.295-3.576 5.16-.704.25-1.488.3-2.232.292a32.76 32.76 0 0 1-3.664-.249 31.462 31.462 0 0 1-3.768-.72c-1.344-.351-2.704-.728-3.984-1.277a49.408 49.408 0 0 1-4.896-2.409c-1.84-1.02-3.528-2.322-5.136-3.728a36.273 36.273 0 0 1-5.48-6.043 37.422 37.422 0 0 1-3.216-5.357C2.96 49.428 2.08 47.234 1.48 44.928c-.416-1.594-.72-3.223-1.008-4.86-.176-1.011-.224-2.057-.336-3.086-.016-.128-.088-.248-.136-.368v-3.317Z" fill="url(#c)"/><path d="M80 78.05c-.072.153-.152.3-.224.454-.464.96-1.232 1.465-2.224 1.474-2.616.026-5.224.008-7.84.017-.28 0-.4-.094-.368-.394.008-.069 0-.146 0-.215 0-14.94.008-29.88-.008-44.83 0-1.422.304-2.7 1.128-3.814.736-1.003 1.656-1.688 2.824-2.006 2.736-.737 5.272.678 6.36 3.438.104.265.128.574.208.857.024.094.096.18.144.274V78.05Z" fill="url(#d)"/><path d="M0 10.239c.048-.103.128-.206.144-.317C.6 6.159 2.296 3.279 5.416 1.427 6.352.87 7.368.52 8.424.28c1.352-.309 2.712-.369 4.04-.103 3.6.703 6.328 2.717 7.864 6.377a12.57 12.57 0 0 1 .912 6.326 11.426 11.426 0 0 1-1.824 5.014c-1.136 1.74-2.6 3.069-4.408 3.918-.768.36-1.616.54-2.424.788-.304.094-.616.146-.968.232.44.085.848.162 1.256.248 3.064.686 5.368 2.512 6.984 5.357 1.104 1.946 1.496 4.08 1.496 6.335-.016 4.543-.008 9.086-.008 13.629 0 .197-.016.386-.032.703-.248-.24-.424-.395-.576-.566-1.712-1.92-3.032-4.123-3.976-6.575-1.016-2.657-1.352-5.451-1.44-8.305-.096-2.975-1.272-5.435-3.328-7.432-1.352-1.312-2.928-2.143-4.712-2.512-.072-.017-.136-.06-.304-.137.928-.463 1.824-.617 2.84-.728-.656-.155-1.208-.283-1.76-.429-1.432-.36-2.704-1.054-3.864-2.006-1.752-1.431-2.936-3.3-3.648-5.511-.192-.592-.248-1.234-.376-1.86-.024-.112-.096-.215-.144-.326C0 11.902 0 11.07 0 10.239Z" fill="url(#e)"/><path d="M0 54.383c.144.188.32.36.432.574 1.816 3.514 4.112 6.635 6.784 9.437a40.427 40.427 0 0 0 5.48 4.783 39.654 39.654 0 0 0 5.256 3.215c.92.48 1.88.874 2.84 1.26.408.163.576.386.56.866-.04.908-.008 1.825-.016 2.743-.008 1.14-.44 2.031-1.464 2.477-.32.137-.688.231-1.04.231-5.448.017-10.896.017-16.352.009-1.088 0-2.112-.729-2.344-1.8-.008-.052-.088-.095-.136-.137V54.383Z" fill="url(#f)"/><path d="M53.904 49.6c.024.266.048.411.048.557 0 4.843 0 9.686.008 14.529 0 .274-.056.446-.304.617-1.776 1.243-3.624 2.34-5.6 3.163-1.248.523-2.512.986-3.768 1.474-.104.043-.224.026-.4.043 1.456-4.114.904-7.869-1.592-11.34 4.68-1.757 8.536-4.732 11.608-9.043Z" fill="url(#g)"/></g><defs><linearGradient id="b" x1="58.662" y1="80" x2="102.186" y2="71.23" gradientUnits="userSpaceOnUse"><stop stop-color="#E5A440"/><stop offset=".447" stop-color="#EFC57B"/><stop offset=".976" stop-color="#E7AC4E"/></linearGradient><linearGradient id="c" x1="0" y1="71.33" x2="56.65" y2="31.375" gradientUnits="userSpaceOnUse"><stop stop-color="#E5A440"/><stop offset=".447" stop-color="#EFC57B"/><stop offset=".976" stop-color="#E7AC4E"/></linearGradient><linearGradient id="d" x1="69.336" y1="79.995" x2="91.429" y2="76.535" gradientUnits="userSpaceOnUse"><stop stop-color="#E5A440"/><stop offset=".447" stop-color="#EFC57B"/><stop offset=".976" stop-color="#E7AC4E"/></linearGradient><linearGradient id="e" x1="0" y1="49.103" x2="40.905" y2="35.663" gradientUnits="userSpaceOnUse"><stop stop-color="#E5A440"/><stop offset=".447" stop-color="#EFC57B"/><stop offset=".976" stop-color="#E7AC4E"/></linearGradient><linearGradient id="f" x1="0" y1="79.983" x2="32.441" y2="59.541" gradientUnits="userSpaceOnUse"><stop stop-color="#E5A440"/><stop offset=".447" stop-color="#EFC57B"/><stop offset=".976" stop-color="#E7AC4E"/></linearGradient><linearGradient id="g" x1="42.296" y1="69.983" x2="63.155" y2="60.965" gradientUnits="userSpaceOnUse"><stop stop-color="#E5A440"/><stop offset=".447" stop-color="#EFC57B"/><stop offset=".976" stop-color="#E7AC4E"/></linearGradient><clipPath id="a"><path fill="#fff" d="M0 0h80v80H0z"/></clipPath></defs></svg>