<svg width="80" height="80" fill="none" xmlns="http://www.w3.org/2000/svg"><g clip-path="url(#a)"><path d="M0 36.716c.36.192.736.36 1.088.576 2.927 1.816 5.847 3.64 8.766 5.464 2.088 1.304 4.183 2.607 6.279 3.911 3.055 1.896 6.119 3.784 9.182 5.68 2.031 1.256 4.055 2.52 6.087 3.775.4.248.4.32 0 .568l-11.158 6.936c-1.296.807-2.584 1.631-3.871 2.447-1.312.832-1.608 2.368-.632 3.544.752.896 1.887 1.176 3.047.464 3.016-1.856 6.007-3.752 9.006-5.632 2.544-1.591 5.095-3.16 7.615-4.783.616-.4 1.064-.488 1.672-.008.567.448 1.223.784 1.863 1.136.808.456 1.6.344 2.368-.12.744-.456 1.48-.92 2.231-1.352a.528.528 0 0 1 .44.008 705.348 705.348 0 0 1 5.215 3.24c2.304 1.432 4.6 2.871 6.895 4.311 1.703 1.064 3.407 2.12 5.103 3.192.84.528 1.703.568 2.527.048.76-.48 1.16-1.216 1.104-2.144-.056-.824-.472-1.448-1.16-1.88-2.287-1.44-4.583-2.863-6.878-4.295-2.304-1.44-4.615-2.88-6.919-4.32-.456-.28-.888-.592-1.344-.864-.28-.16-.296-.24-.008-.416 1.248-.76 2.488-1.527 3.736-2.303 1.943-1.216 3.887-2.44 5.83-3.648 3.664-2.28 7.335-4.552 11.006-6.831 2.96-1.84 5.919-3.696 8.878-5.544.576-.36 1.152-.728 1.736-1.088.08-.048.2-.048.296-.064V78.24c-.048.04-.128.064-.136.112-.168.648-.576 1.08-1.152 1.376-.16.08-.312.184-.464.272H1.784c-.04-.048-.064-.128-.112-.136-.664-.168-1.096-.6-1.408-1.184-.08-.144-.16-.296-.248-.44C0 64.394 0 50.555 0 36.716Z" fill="url(#b)"/><path d="M51.75 0c-.016.2-.04.392-.04.592 0 15.838 0 31.677.008 47.515 0 .408-.12.64-.472.856-1.264.76-2.512 1.552-3.768 2.336-.12.08-.248.144-.456.272V16.782c0-.848-.24-1.568-.911-2.127-.392-.328-.832-.432-1.328-.432-1.032 0-1.8-.464-2.232-1.4-.151-.328-.208-.712-.224-1.072-.047-1.072-.6-1.816-1.64-2.08a4.316 4.316 0 0 0-1.007-.144c-2.983-.008-5.975-.008-8.958-.008a2.61 2.61 0 0 0-1.736.632c-.512.432-.728.976-.728 1.64 0 .832-.296 1.544-1.031 1.984-.36.216-.816.456-1.192.416-1.432-.152-2.464 1.16-2.464 2.583.024 9.455.008 18.902.008 28.358v.527c-.144-.064-.24-.096-.328-.144-1.367-.848-2.735-1.711-4.11-2.551-.233-.144-.257-.328-.257-.568V2.56c0-1.048.408-1.832 1.344-2.328.136-.072.264-.152.4-.232H51.75Z" fill="url(#c)"/><path d="M59.348 0c.032.048.056.128.096.136.992.248 1.576 1.176 1.632 2.096.016.2.008.4.008.6 0 13.07 0 26.15.008 39.22 0 .52-.088.84-.6 1.128-1.304.728-2.544 1.575-3.807 2.367-.064.04-.144.048-.288.088V.52c0-.176 0-.344-.008-.52h2.96Z" fill="url(#d)"/><path d="M42.32 35.3c.016 3.84-3.176 7.056-7.023 7.024-3.911-.04-6.999-3.056-7.007-7-.008-3.935 3.048-7.015 7.007-7.023 3.935 0 6.95 3.072 7.023 7Z" fill="url(#e)"/><path d="M42.288 25.965c-2.128-1.495-4.407-2.375-6.983-2.367-2.575 0-4.863.864-7.015 2.391-.008-.224-.024-.376-.024-.52 0-2.16.008-4.32-.008-6.479 0-.368.112-.544.44-.68 1.584-.664 2.784-1.76 3.488-3.32.296-.648.64-.8 1.295-.776 1.4.056 2.8.024 4.2.008.264 0 .392.072.503.329.752 1.791 2.04 3.063 3.832 3.831.184.08.312.144.312.384-.008 2.32-.008 4.64-.008 6.96 0 .055-.016.111-.032.24Z" fill="url(#f)"/><path d="M28.298 44.66c4.671 3.167 9.319 3.167 13.998.008.016.184.032.312.032.431 0 3.008 0 6.024.008 9.032 0 .288-.088.456-.344.6-.6.343-1.168.727-1.768 1.071a.542.542 0 0 1-.472 0c-2.983-1.84-5.959-3.695-8.942-5.543-.736-.456-1.472-.928-2.216-1.384-.232-.144-.344-.312-.335-.608.023-1.056.008-2.104.008-3.16.008-.127.015-.255.031-.447Z" fill="url(#g)"/><path d="M14.19 25.238V39.86c-3.944-2.432-7.84-4.84-11.846-7.311 3.967-2.448 7.87-4.856 11.845-7.311Z" fill="url(#h)"/><path d="M65.779 39.86V25.23c3.967 2.447 7.87 4.855 11.853 7.31-3.99 2.465-7.894 4.88-11.853 7.32Z" fill="url(#i)"/></g><defs><linearGradient id="b" x1="0" y1="80" x2="57.563" y2="-.38" gradientUnits="userSpaceOnUse"><stop stop-color="#E5A440"/><stop offset=".447" stop-color="#EFC57B"/><stop offset=".976" stop-color="#E7AC4E"/></linearGradient><linearGradient id="c" x1="18.884" y1="51.571" x2="75.515" y2="24.305" gradientUnits="userSpaceOnUse"><stop stop-color="#E5A440"/><stop offset=".447" stop-color="#EFC57B"/><stop offset=".976" stop-color="#E7AC4E"/></linearGradient><linearGradient id="d" x1="56.389" y1="45.635" x2="66.311" y2="44.863" gradientUnits="userSpaceOnUse"><stop stop-color="#E5A440"/><stop offset=".447" stop-color="#EFC57B"/><stop offset=".976" stop-color="#E7AC4E"/></linearGradient><linearGradient id="e" x1="28.29" y1="42.324" x2="47.241" y2="28" gradientUnits="userSpaceOnUse"><stop stop-color="#E5A440"/><stop offset=".447" stop-color="#EFC57B"/><stop offset=".976" stop-color="#E7AC4E"/></linearGradient><linearGradient id="f" x1="28.258" y1="25.989" x2="44.715" y2="11.136" gradientUnits="userSpaceOnUse"><stop stop-color="#E5A440"/><stop offset=".447" stop-color="#EFC57B"/><stop offset=".976" stop-color="#E7AC4E"/></linearGradient><linearGradient id="g" x1="28.258" y1="55.856" x2="43.966" y2="40.936" gradientUnits="userSpaceOnUse"><stop stop-color="#E5A440"/><stop offset=".447" stop-color="#EFC57B"/><stop offset=".976" stop-color="#E7AC4E"/></linearGradient><linearGradient id="h" x1="2.344" y1="39.86" x2="20.635" y2="28.665" gradientUnits="userSpaceOnUse"><stop stop-color="#E5A440"/><stop offset=".447" stop-color="#EFC57B"/><stop offset=".976" stop-color="#E7AC4E"/></linearGradient><linearGradient id="i" x1="65.779" y1="39.86" x2="84.081" y2="28.657" gradientUnits="userSpaceOnUse"><stop stop-color="#E5A440"/><stop offset=".447" stop-color="#EFC57B"/><stop offset=".976" stop-color="#E7AC4E"/></linearGradient><clipPath id="a"><path fill="#fff" d="M0 0h80v80H0z"/></clipPath></defs></svg>