<svg width="80" height="80" fill="none" xmlns="http://www.w3.org/2000/svg"><path d="M40.974 1c1.945 1.524 3.742 3.236 5.882 4.533 1.554.938 3.156 1.806 4.856 2.447 1.521.578 3.108 1 4.694 1.407 2.384.61 4.824.765 7.28.765 1.563 0 3.116.032 4.678-.007 1.497-.04 2.636 1.063 2.636 2.532-.024 9.559-.008 19.126-.04 28.684-.009 1.29-.155 2.588-.326 3.877a28.48 28.48 0 0 1-.643 3.299 34.31 34.31 0 0 1-2.595 6.98 35.478 35.478 0 0 1-3.587 5.705c-1.521 1.962-3.238 3.775-5.093 5.463-2.993 2.72-6.28 5.057-9.704 7.23-2.286 1.454-4.621 2.83-6.94 4.236-.357.22-.764.36-1.122.579-.74.453-1.432.281-2.107-.11-1.708-1-3.425-1.993-5.117-3.032a170.715 170.715 0 0 1-5.133-3.267 63.47 63.47 0 0 1-7.435-5.776 41.208 41.208 0 0 1-4.938-5.3c-1.074-1.39-2.001-2.884-2.896-4.392-1.082-1.83-1.96-3.76-2.562-5.792a57.036 57.036 0 0 1-.96-3.634c-.22-.993-.334-2.009-.497-3.01-.366-2.297-.3-4.61-.3-6.924V12.638c0-1.008.398-1.798 1.374-2.228a3.05 3.05 0 0 1 1.123-.242c1.749-.023 3.498.008 5.247-.015 1.18-.016 2.367-.016 3.53-.18a49.089 49.089 0 0 0 4.76-.923c2.155-.523 4.189-1.383 6.141-2.407 1.53-.805 2.994-1.712 4.336-2.775 1.009-.805 1.977-1.657 2.97-2.485.17-.14.357-.258.528-.383h1.96Zm20.468 38.962c-.057-11.356-9.461-20.61-21.42-20.626-11.836-.023-21.443 9.106-21.46 20.564-.015 11.388 9.478 20.603 21.396 20.618 11.82.024 21.37-9.066 21.484-20.556Z" fill="url(#a)"/><path d="M40.011 24c8.3.039 14.996 7.182 14.989 16.02-.007 8.845-6.726 15.996-15.026 15.98C31.674 55.984 25 48.818 25 39.996 25 31.151 31.719 24.023 40.011 24Zm-2.284 25.153c.828 0 1.355-.35 1.83-.858 2.81-2.998 5.621-5.996 8.431-9.002.776-.827 1.581-1.639 2.299-2.521.541-.672.585-1.499.22-2.303-.36-.804-.989-1.241-1.816-1.32-.71-.062-1.28.282-1.764.797-2.927 3.115-5.847 6.23-8.76 9.36-.242.266-.381.258-.63-.008a718.714 718.714 0 0 0-4.552-4.84c-.732-.773-1.676-.937-2.54-.468-1.34.726-1.588 2.49-.468 3.708 2.078 2.264 4.193 4.489 6.294 6.73.44.452.959.733 1.456.725Z" fill="url(#b)"/><defs><linearGradient id="a" x1="9" y1="79" x2="105.718" y2="20.918" gradientUnits="userSpaceOnUse"><stop stop-color="#E5A440"/><stop offset=".447" stop-color="#EFC57B"/><stop offset=".976" stop-color="#E7AC4E"/></linearGradient><linearGradient id="b" x1="25" y1="56" x2="67.404" y2="25.966" gradientUnits="userSpaceOnUse"><stop stop-color="#E5A440"/><stop offset=".447" stop-color="#EFC57B"/><stop offset=".976" stop-color="#E7AC4E"/></linearGradient></defs></svg>