<svg width="65" height="89" fill="none" xmlns="http://www.w3.org/2000/svg"><g clip-path="url(#a)"><path d="M65 72.662v15.524H4.339V75.05L32.28 45.675c2.468-2.826 4.458-5.353 5.97-7.582 1.513-2.27 2.608-4.32 3.284-6.15.717-1.831 1.075-3.483 1.075-4.956 0-2.507-.378-4.597-1.134-6.269-.717-1.712-1.791-3.005-3.224-3.88-1.394-.877-3.125-1.314-5.195-1.314-2.07 0-3.88.597-5.433 1.79-1.552 1.195-2.766 2.827-3.642 4.897-.836 2.07-1.254 4.398-1.254 6.985H2.548c0-5.334 1.293-10.21 3.88-14.628C9.055 10.15 12.698 6.628 17.355 4c4.657-2.667 10.05-4 16.18-4 6.408 0 11.782.995 16.12 2.985 4.34 1.99 7.603 4.876 9.792 8.658 2.23 3.741 3.344 8.259 3.344 13.553a26.7 26.7 0 0 1-1.433 8.717c-.955 2.786-2.329 5.553-4.12 8.3-1.791 2.706-3.98 5.492-6.568 8.358-2.547 2.866-5.453 5.91-8.717 9.135L30.73 72.662H65Z" fill="#CA0026"/><path d="M62.453 72.662v15.524H1.79V75.05l27.943-29.375c2.468-2.826 4.458-5.353 5.97-7.582 1.513-2.27 2.607-4.32 3.284-6.15.717-1.831 1.075-3.483 1.075-4.956 0-2.507-.378-4.597-1.135-6.269-.716-1.712-1.79-3.005-3.224-3.88-1.393-.877-3.124-1.314-5.194-1.314s-3.881.597-5.434 1.79c-1.552 1.195-2.766 2.827-3.642 4.897-.835 2.07-1.253 4.398-1.253 6.985H0c0-5.334 1.294-10.21 3.88-14.628C6.509 10.15 10.15 6.628 14.808 4c4.657-2.667 10.05-4 16.18-4 6.409 0 11.782.995 16.121 2.985 4.339 1.99 7.603 4.876 9.792 8.658 2.229 3.741 3.343 8.259 3.343 13.553 0 3.025-.477 5.93-1.433 8.717-.955 2.786-2.328 5.553-4.12 8.3-1.79 2.706-3.98 5.492-6.567 8.358-2.547 2.866-5.453 5.91-8.717 9.135L28.181 72.662h34.272Z" fill="url(#b)"/></g><defs><linearGradient id="b" x1="0" y1="88.186" x2="103.057" y2="33.046" gradientUnits="userSpaceOnUse"><stop stop-color="#E5A440"/><stop offset=".447" stop-color="#EFC57B"/><stop offset=".976" stop-color="#E7AC4E"/></linearGradient><clipPath id="a"><path fill="#fff" d="M0 0h65v89H0z"/></clipPath></defs></svg>