<svg width="65" height="89" fill="none" xmlns="http://www.w3.org/2000/svg"><g clip-path="url(#a)"><path d="M23.13 35.906h9.685c2.48 0 4.508-.434 6.083-1.3 1.614-.905 2.815-2.165 3.602-3.78.788-1.653 1.181-3.602 1.181-5.846 0-1.732-.374-3.326-1.122-4.783-.709-1.457-1.81-2.618-3.307-3.484-1.496-.906-3.406-1.359-5.728-1.359-1.575 0-3.11.335-4.607 1.004-1.496.63-2.736 1.536-3.72 2.717-.945 1.18-1.417 2.618-1.417 4.31H3.819c0-4.881 1.339-9.054 4.016-12.519 2.716-3.504 6.28-6.181 10.689-8.031C22.972.945 27.756 0 32.874 0c6.102 0 11.457.945 16.063 2.835 4.606 1.85 8.19 4.606 10.748 8.267 2.599 3.622 3.898 8.11 3.898 13.465 0 2.953-.69 5.728-2.067 8.327-1.378 2.598-3.307 4.882-5.788 6.85-2.48 1.969-5.393 3.524-8.74 4.666-3.307 1.102-6.929 1.653-10.866 1.653H23.13V35.906Zm0 14.822v-9.92h12.992c4.291 0 8.209.491 11.752 1.475 3.543.945 6.595 2.363 9.154 4.252 2.559 1.89 4.527 4.233 5.905 7.028C64.311 56.319 65 59.488 65 63.071c0 4.016-.807 7.598-2.421 10.748-1.614 3.15-3.878 5.807-6.791 7.972-2.914 2.166-6.32 3.82-10.217 4.961-3.898 1.102-8.13 1.654-12.697 1.654-3.583 0-7.165-.473-10.748-1.418-3.583-.984-6.85-2.48-9.803-4.488-2.953-2.047-5.335-4.646-7.146-7.795-1.771-3.19-2.657-6.989-2.657-11.398h19.96c0 1.811.492 3.465 1.477 4.96 1.023 1.457 2.382 2.619 4.075 3.485 1.692.866 3.523 1.3 5.492 1.3 2.44 0 4.508-.454 6.2-1.36 1.733-.944 3.052-2.204 3.957-3.779.906-1.574 1.358-3.326 1.358-5.255 0-2.914-.492-5.237-1.476-6.969-.945-1.732-2.342-2.992-4.193-3.78-1.81-.787-3.996-1.18-6.555-1.18H23.13Z" fill="#CA0026"/><path d="M20.61 35.906h9.685c2.48 0 4.508-.434 6.083-1.3 1.614-.905 2.815-2.165 3.602-3.78.788-1.653 1.181-3.602 1.181-5.846 0-1.732-.374-3.326-1.122-4.783-.708-1.457-1.81-2.618-3.307-3.484-1.496-.906-3.405-1.359-5.728-1.359-1.575 0-3.11.335-4.606 1.004-1.496.63-2.737 1.536-3.72 2.717-.946 1.18-1.418 2.618-1.418 4.31H1.3c0-4.881 1.338-9.054 4.015-12.519 2.716-3.504 6.28-6.181 10.689-8.031C20.453.945 25.236 0 30.354 0c6.103 0 11.457.945 16.063 2.835 4.607 1.85 8.19 4.606 10.748 8.267 2.599 3.622 3.898 8.11 3.898 13.465 0 2.953-.689 5.728-2.067 8.327-1.378 2.598-3.307 4.882-5.787 6.85-2.48 1.969-5.394 3.524-8.74 4.666-3.308 1.102-6.93 1.653-10.867 1.653H20.61V35.906Zm0 14.822v-9.92h12.992c4.292 0 8.209.491 11.752 1.475 3.544.945 6.595 2.363 9.154 4.252 2.559 1.89 4.527 4.233 5.905 7.028 1.378 2.756 2.067 5.925 2.067 9.508 0 4.016-.807 7.598-2.42 10.748-1.615 3.15-3.879 5.807-6.792 7.972-2.914 2.166-6.32 3.82-10.217 4.961-3.898 1.102-8.13 1.654-12.697 1.654-3.582 0-7.165-.473-10.748-1.418-3.582-.984-6.85-2.48-9.803-4.488-2.953-2.047-5.335-4.646-7.146-7.795C.886 71.515 0 67.716 0 63.307h19.96c0 1.811.493 3.465 1.477 4.96 1.024 1.457 2.382 2.619 4.075 3.485 1.693.866 3.523 1.3 5.492 1.3 2.44 0 4.508-.454 6.2-1.36 1.733-.944 3.052-2.204 3.957-3.779.906-1.574 1.359-3.326 1.359-5.255 0-2.914-.492-5.237-1.477-6.969-.945-1.732-2.342-2.992-4.193-3.78-1.81-.787-3.996-1.18-6.555-1.18H20.61Z" fill="url(#b)"/></g><defs><linearGradient id="b" x1="0" y1="88.406" x2="103.196" y2="33.304" gradientUnits="userSpaceOnUse"><stop stop-color="#E5A440"/><stop offset=".447" stop-color="#EFC57B"/><stop offset=".976" stop-color="#E7AC4E"/></linearGradient><clipPath id="a"><path fill="#fff" d="M0 0h65v89H0z"/></clipPath></defs></svg>