<svg width="80" height="80" fill="none" xmlns="http://www.w3.org/2000/svg"><g clip-path="url(#a)" fill="#CA0026"><path d="M79.512 11.52v63.44c-.102.272-.212.544-.299.824-.37 1.208-1.125 2.112-2.179 2.776-.96.608-2.022.736-3.115.736H6.349c-1.078 0-2.132-.152-3.068-.752-1.031-.664-1.778-1.552-2.148-2.752-.087-.28-.197-.552-.299-.824v-63.44c.047-.088.126-.168.142-.264.141-.84.503-1.568 1.038-2.208C3.068 7.8 4.414 7.2 6.034 7.2c2.62.008 5.24 0 7.867 0 .559 0 .559 0 .559.568v7.4c0 .984.008 1.976.409 2.888.621 1.408 1.613 2.456 3.02 3.072 1.157.512 2.377.48 3.596.424 1.628-.08 2.966-.792 4.004-2.056.89-1.088 1.298-2.368 1.298-3.776.008-2.68 0-5.36 0-8.04v-.464H54.15v.496c0 2.544.016 5.096-.008 7.64-.008 1.632.417 3.088 1.51 4.304.85.936 1.896 1.568 3.132 1.736.936.12 1.904.088 2.855.04 1.464-.08 2.746-.624 3.753-1.744a4.051 4.051 0 0 0 1.015-2.2c.078-.608.055-1.224.055-1.84.008-2.656.008-5.304-.008-7.96 0-.408.118-.512.52-.512 2.438.016 4.877.016 7.316.008.778 0 1.534.136 2.234.472 1.314.632 2.25 1.624 2.675 3.064.11.28.22.536.314.8ZM5.892 27.512V73.64c0 .568 0 .568.567.568H73.91c.558 0 .558 0 .558-.576v-46.12H5.894Z"/><path d="M16.977 9.92c0-1.984-.016-3.968.008-5.96.016-1.368.653-2.4 1.896-2.904C20.218.512 22.665.592 23.633 2c.472.688.676 1.432.684 2.208.032 3.8.04 7.6 0 11.392-.016 1.456-.574 2.712-2.038 3.176-1.47.464-2.973.528-4.271-.584a2.847 2.847 0 0 1-1.023-2.2c-.016-2.016-.008-4.048-.008-6.072Zm47.037-.08c0 1.888-.031 3.784.008 5.672.04 1.696-.952 3.032-2.305 3.28-1.369.256-2.8.408-3.98-.672-.567-.52-.953-1.144-.976-1.944a124.17 124.17 0 0 1-.103-3.824 402.77 402.77 0 0 1 .016-8.152 4.612 4.612 0 0 1 .362-1.72c.535-1.224 1.573-1.744 2.848-1.784.85-.024 1.707-.056 2.486.384 1.007.576 1.605 1.448 1.62 2.632.04 2.056.016 4.096.024 6.128-.008 0-.008 0 0 0ZM32.546 69.2h-4.248c-.693 0-.897-.192-.897-.88v-7.552c0-.664.228-.896.889-.896 2.832 0 5.656-.008 8.488 0 .638 0 .96.368.952.976-.023 2.464-.008 4.928-.008 7.392 0 .712-.243.96-.928.96h-4.248Zm-14.782 0h-4.248c-.645 0-.881-.232-.881-.88 0-2.52 0-5.04-.008-7.56 0-.568.157-.872.889-.88a433.69 433.69 0 0 1 8.535 0c.63.008.92.288.913.912-.016 2.504-.008 5.008-.008 7.52 0 .648-.244.896-.873.896-1.44-.008-2.88-.008-4.32-.008Zm44.244 0H57.76c-.63 0-.85-.216-.85-.848V60.72c0-.592.236-.848.818-.848 2.88-.008 5.767-.016 8.646.008.543.008.866.328.866.888-.016 2.52-.008 5.032-.008 7.552 0 .608-.26.88-.858.88h-4.366Zm-14.751 0H43.01c-.637 0-.873-.24-.873-.888 0-2.504.008-5.008-.008-7.52 0-.576.157-.912.936-.92 2.8-.024 5.61-.016 8.418 0 .716 0 .991.312.983.968-.023 2.48-.008 4.96-.008 7.44 0 .696-.228.928-.92.928-1.424-.008-2.848-.008-4.28-.008Zm0-26.08h-4.326c-.543 0-.787-.232-.787-.792-.008-2.56-.008-5.12 0-7.68 0-.584.173-.768.755-.768 2.934-.008 5.869-.008 8.811 0 .559 0 .748.208.755.776v7.64c0 .584-.236.816-.802.824h-4.406Zm.04 13H42.97c-.684 0-.826-.152-.834-.856v-7.48c0-.696.204-.904.873-.904h8.575c.645 0 .874.224.874.872v7.52c0 .68-.166.848-.842.848h-4.32Zm-29.541 0h-4.288c-.684 0-.834-.152-.834-.856v-7.52c0-.656.22-.872.874-.872h8.575c.645 0 .873.224.873.872v7.56c0 .616-.18.808-.802.808-1.464.008-2.927.008-4.398.008Zm44.299-22.24h4.28c.7 0 .889.184.889.888v7.472c0 .648-.236.88-.873.88-2.872 0-5.736-.008-8.607.008-.504 0-.85-.256-.842-.856.024-2.528.016-5.064.008-7.592 0-.6.197-.808.787-.808 1.455.016 2.91.008 4.358.008ZM32.507 56.12c-1.416 0-2.832-.008-4.24 0-.661.008-.866-.152-.858-.848.008-2.504.016-5.008-.008-7.512-.008-.64.323-.896.889-.896 2.84.024 5.688.008 8.528.008.684 0 .913.232.913.928v7.432c0 .672-.197.88-.858.88-1.456.008-2.91.008-4.366.008Zm29.533 0c-1.432 0-2.856-.008-4.28 0-.637.008-.85-.152-.85-.864.016-2.504.024-5.008-.008-7.512-.008-.624.346-.88.866-.88 2.855.024 5.711.008 8.567.008.66 0 .889.232.889.904 0 2.464-.008 4.928.008 7.392.008.64-.205.976-.952.96-1.416-.032-2.825-.008-4.24-.008Z"/></g><defs><clipPath id="a"><path fill="#fff" d="M0 0h80v80H0z"/></clipPath></defs></svg>