<svg width="80" height="80" fill="none" xmlns="http://www.w3.org/2000/svg"><path d="M68.648 79.208H10.736c-.054-.046-.1-.116-.17-.14-.331-.116-.685-.186-1.001-.341-1.17-.582-1.94-1.537-2.264-2.81-.216-.854-.324-1.747-.462-2.624-.208-1.312-.385-2.631-.586-3.943-.292-1.925-.6-3.85-.885-5.775-.224-1.514-.431-3.028-.647-4.534-.054-.364-.108-.737-.17-1.102-.138-.846-.292-1.692-.423-2.538-.123-.815-.231-1.63-.354-2.445-.177-1.157-.378-2.314-.555-3.478-.162-1.087-.308-2.174-.47-3.26-.238-1.607-.492-3.206-.739-4.813-.062-.396-.085-.8-.177-1.18-.231-.931-.054-1.778.439-2.57.624-1.008 1.548-1.52 2.718-1.536.293-.008.385-.109.34-.396-.116-.699-.186-1.405-.34-2.088-.192-.87-.107-1.685.17-2.53.562-1.7 2.28-2.85 4.05-2.85 5.761.008 11.522 0 17.29.008.493 0 1.001.062 1.479.194 1.132.31 2.063.963 2.818 1.855 1.517 1.794 3.042 3.587 4.544 5.395.239.288.477.396.847.396 8.625-.008 17.25-.008 25.876-.008.293 0 .593-.007.886.024 1.008.1 1.802.582 2.402 1.405.555.76.593 1.66.747 2.53.085.505.124 1.025.2 1.53.178 1.195.378 2.39.555 3.586.27 1.84.516 3.68.786 5.519.223 1.53.477 3.05.7 4.58.131.877.224 1.754.34 2.639.045.38.107.76.169 1.141.138.87.292 1.739.416 2.616.123.854.223 1.708.354 2.562.185 1.234.377 2.468.562 3.71.216 1.467.424 2.942.624 4.41.154 1.11.308 2.22.431 3.337.154 1.382-.832 2.802-2.056 3.23-.193.085-.362.201-.532.294ZM63.026 1.584c.324.155.655.287.963.465.77.458 1.332 1.118 1.502 2.019.1.55.146 1.117.146 1.684.008 8.508.008 17.023.008 25.53v.575h-5.098V7.25c0-.543 0-.543-.54-.543H24.32c-.6 0-.6 0-.6.597V24.6h-5.438c-.007-.132-.023-.271-.023-.403 0-6.273.008-12.545-.007-18.824 0-1.374.454-2.492 1.625-3.237.292-.187.639-.272.962-.42.062-.023.1-.093.147-.14 14.008.009 28.024.009 42.04.009Zm10.467 63.792c-.108-.7-.216-1.398-.316-2.096-.185-1.25-.378-2.492-.563-3.742-.077-.504-.123-1.024-.2-1.53-.13-.884-.285-1.769-.423-2.654-.062-.38-.116-.76-.17-1.14-.17-1.235-.315-2.47-.493-3.704-.362-2.515-.754-5.022-1.1-7.537-.163-1.18-.247-2.36-.378-3.547-.177-1.638-.37-3.284-.555-4.922-.046-.45-.084-.892-.13-1.343-.078-.753-.155-1.506-.232-2.29.17-.007.293-.023.416-.023 1.795 0 3.597.031 5.391-.008a3.268 3.268 0 0 1 3.188 2.22c.2.59.293 1.211.093 1.856-.116.388-.131.807-.193 1.218-.246 1.693-.493 3.392-.731 5.085-.216 1.498-.408 2.996-.624 4.486-.177 1.211-.377 2.415-.562 3.626-.077.496-.116 1-.193 1.498-.13.877-.277 1.746-.416 2.616-.061.388-.115.784-.17 1.18-.215 1.575-.415 3.159-.646 4.727-.285 1.948-.578 3.904-.87 5.853-.008.062-.031.116-.046.178-.024 0-.054-.007-.077-.007Z" fill="#CA0026"/><path d="M42.002 17.986c-3.465 0-6.93-.008-10.396.007-1.179.008-1.995-.527-2.519-1.56-.847-1.684.324-3.943 2.334-3.974.1 0 .208-.008.308-.008h20.485c.955 0 1.756.287 2.341 1.079a2.832 2.832 0 0 1-1 4.246c-.378.194-.864.202-1.302.202-3.42.015-6.84.008-10.25.008Zm-.046 4.696h10.312c1.178 0 2.056.512 2.58 1.599.747 1.53-.077 3.423-1.71 3.866-.3.085-.631.124-.94.124-5.922.008-11.851 0-17.774.015-.346 0-.593-.1-.816-.357-.993-1.148-2.187-2.033-3.596-2.6-.247-.101-.509-.17-.763-.248-.3-.094-.416-.272-.27-.583.54-1.125 1.356-1.832 2.704-1.824 3.42.016 6.846.008 10.273.008Z" fill="#CA0026"/></svg>