<svg width="80" height="80" fill="none" xmlns="http://www.w3.org/2000/svg"><path d="M63.428 78.243H4.644c-.243-.123-.511-.23-.739-.384-.755-.499-1.055-1.205-1.055-2.072.008-23.942.008-47.885.008-71.827v-.307c.049-.829.438-1.458 1.218-1.857.187-.1.373-.192.568-.292h58.784c.041.046.073.115.122.13 1.047.315 1.665 1.067 1.665 2.095.008 4.935 0 9.877.008 14.811 0 .276-.122.391-.358.468-.535.161-1.08.315-1.615.476-1.697.514-3.394 1.02-5.091 1.535-1.413.43-2.826.875-4.238 1.312-1.145.353-2.347.583-3.346 1.243-.511.338-1.023.407-1.607.407a955.434 955.434 0 0 0-8.12 0c-1.21 0-2.232.982-2.273 2.148-.049 1.267 1.04 2.318 2.395 2.326 1.925.015 3.84 0 5.765.007.17 0 .341.023.479.031-.105 1.512-.203 2.978-.308 4.482h-.512c-10.41 0-20.81 0-31.219.007-.341 0-.69.054-1.023.138-1.526.384-2.168 2.287-1.177 3.454.56.66 1.283.913 2.168.913 10.571-.008 21.134-.008 31.706-.008h.503c.365 1.52.723 2.978 1.088 4.482-.22.007-.414.023-.609.023-10.856 0-21.703 0-32.559.007-.324 0-.65.031-.966.093-1.648.314-2.37 2.332-1.29 3.552.568.637 1.282.845 2.143.845 11.57-.008 23.14-.008 34.71-.016.382 0 .577.123.73.43 1.138 2.21 2.575 4.251 4.231 6.14 1.713 1.964 3.662 3.698 5.805 5.24 1.259.906 2.631 1.512 4.239 1.543.316.007.349.153.34.383 0 5.28 0 10.567-.007 15.847 0 .844-.43 1.481-1.226 1.895-.187.1-.366.2-.553.3ZM23.254 64.568c2.639 0 5.277.008 7.916-.008.357 0 .723-.061 1.08-.115.885-.138 1.721-1.051 1.721-1.95.009-3.145 0-6.292 0-9.438 0-.138.009-.291-.04-.422-.455-1.159-1.324-1.65-2.517-1.65-5.44 0-10.88.008-16.32-.008-1.462-.007-2.623.99-2.598 2.425.04 2.916.04 5.832 0 8.749-.017 1.396 1.08 2.432 2.598 2.425 2.72-.016 5.44-.008 8.16-.008Zm-.025-36.113c2.777 0 5.546-.008 8.323 0 1.25 0 2.436-.906 2.428-2.28-.025-3.008-.009-6.008-.009-9.016 0-.737-.316-1.305-.917-1.765-.528-.415-1.153-.46-1.786-.46H15.19c-.105 0-.219.007-.325.007a2.347 2.347 0 0 0-2.378 2.371c.04 2.916.008 5.832.016 8.748 0 .269.008.545.097.79.366 1.037 1.21 1.597 2.38 1.597 2.752.015 5.504.008 8.248.008ZM47.068 60.07h-.447c-1.973.008-3.946-.015-5.919.03-1.153.031-2.078.99-2.127 2.134-.057 1.29 1.072 2.333 2.484 2.333 3.898.008 7.787.008 11.684-.008.398 0 .804-.053 1.194-.138 1.16-.269 1.94-1.711 1.526-2.77-.414-1.044-1.177-1.573-2.387-1.581-2.005-.015-4.003 0-6.008 0Zm-.008-40.625c1.916 0 3.84.007 5.756-.008.309 0 .617-.038.918-.1.917-.176 1.494-.752 1.737-1.573.228-.783.041-1.512-.56-2.126-.544-.56-1.242-.706-2.005-.706-3.881.008-7.762 0-11.643 0-.187 0-.374.023-.569.031-1.486.054-2.671 1.734-1.875 3.192.479.875 1.266 1.267 2.273 1.274 1.997.023 3.987.008 5.968.016Z" fill="#CA0026"/><path d="M78.742 32.483c-.082 1.144-.106 2.295-.252 3.43-.122.96-.382 1.912-.585 2.863-.47 2.156-1.307 4.19-2.338 6.162a26.817 26.817 0 0 1-3.914 5.579c-1.477 1.635-3.142 3.077-4.969 4.366-.73.515-2.11.553-2.858.031-2.095-1.466-3.97-3.139-5.594-5.057a27.805 27.805 0 0 1-3.849-5.94c-.868-1.803-1.55-3.66-1.965-5.594-.26-1.212-.405-2.44-.535-3.668a19.492 19.492 0 0 1-.122-2.755c.032-1.028.138-2.064.284-3.085.122-.836.715-1.396 1.543-1.657 2.094-.66 4.197-1.274 6.3-1.896 1.438-.43 2.899-.813 4.32-1.297.885-.299 1.68-.13 2.509.13 1.372.438 2.76.822 4.14 1.236 1.243.376 2.477.753 3.72 1.136.73.223 1.46.453 2.192.668 1.112.322 1.64 1.128 1.737 1.987.13 1.105.162 2.233.236 3.361Zm-15.517 7.421c-.381-.368-.722-.721-1.08-1.051-.95-.867-2.46-.89-3.353-.008-.942.929-.99 2.218.017 3.2.885.867 1.802 1.719 2.72 2.555 1.006.929 2.443.952 3.442.023a844.639 844.639 0 0 0 6.69-6.315c.87-.829.95-2.118.252-2.955-.796-.959-2.046-1.22-3.15-.544-.61.368-1.104.913-1.624 1.396-1.315 1.213-2.598 2.448-3.914 3.7ZM23.278 55.467c1.843 0 3.678.007 5.521-.008.317 0 .43.092.43.384a302.92 302.92 0 0 0 0 3.837c0 .307-.13.391-.438.391a2654.79 2654.79 0 0 0-11.075 0c-.332 0-.446-.092-.446-.414.016-1.267.016-2.533 0-3.799-.008-.33.122-.407.447-.399 1.85.015 3.71.008 5.561.008Zm5.887-31.502H17.319c-.017-.122-.041-.245-.041-.368 0-1.25.008-2.502-.008-3.76-.008-.33.122-.4.447-.4 3.694.009 7.38.009 11.074.009.228 0 .439-.024.439.299-.008 1.32 0 2.632-.008 3.952 0 .077-.033.161-.057.268Z" fill="#CA0026"/></svg>