<svg width="80" height="80" fill="none" xmlns="http://www.w3.org/2000/svg"><path d="M42.16 77.987H38c-.104-.046-.2-.114-.312-.13-.928-.113-1.872-.182-2.8-.318-.872-.13-1.76-.243-2.6-.494-1.752-.54-3.512-1.064-5.184-1.778-2.44-1.04-4.672-2.43-6.728-4.08-3.52-2.817-6.248-6.198-8.128-10.178-.584-1.231-1.032-2.53-1.472-3.822-.28-.828-.472-1.694-.648-2.544-.184-.92-.312-1.854-.456-2.78-.04-.236-.04-.48-.048-.722-.024-1.322-.112-2.652-.056-3.974.048-1.033.256-2.066.416-3.099.096-.608.184-1.215.36-1.8.32-1.087.68-2.165 1.064-3.229a22.536 22.536 0 0 1 3.008-5.69c1.576-2.165 3.248-4.277 4.888-6.404 1.984-2.575 3.976-5.135 5.968-7.703 1.176-1.512 2.344-3.038 3.544-4.535.664-.828 1.848-1.04 2.816-.57.904.433 1.32 1.147 1.32 2.09 0 1.838-.008 3.669.008 5.507 0 .372.032.76.16 1.109.4 1.064 1.592 1.656 2.64 1.405 1.184-.28 1.904-1.132 1.896-2.393a298.254 298.254 0 0 1 0-4.634c.008-1.268.224-2.514.576-3.737.912-3.1 2.656-5.69 5.256-7.764 2.52-2.013 5.392-3.236 8.672-3.555.104-.008.208-.084.304-.13h2.16c.056.046.104.122.168.138.904.22 1.568 1.17 1.6 2.013.024.6-.248 1.094-.568 1.565C54.52 7.673 53.8 9.784 53.6 12.048c-.152 1.702.056 3.38.576 5.037.52 1.656 1.36 3.137 2.424 4.52 1.168 1.52 2.352 3.03 3.512 4.55 1.336 1.74 2.632 3.502 3.984 5.227 1.68 2.142 3.104 4.413 4.16 6.89.864 2.028 1.456 4.132 1.84 6.282.2 1.124.288 2.28.328 3.419.032 1.094-.04 2.195-.112 3.289a24.507 24.507 0 0 1-.328 2.651c-.168.957-.408 1.907-.632 2.857-.384 1.618-1.016 3.152-1.76 4.641a28.622 28.622 0 0 1-5.248 7.361 30.095 30.095 0 0 1-5.824 4.642c-1.808 1.101-3.704 2.05-5.728 2.727a45.364 45.364 0 0 1-3.304.957 33.73 33.73 0 0 1-2.904.577c-.72.114-1.456.13-2.176.198-.072-.008-.16.068-.248.114ZM21.256 51.285c-.032 9.792 8.4 17.791 18.728 17.799 10.352.007 18.768-8 18.76-17.814-.008-9.83-8.4-17.8-18.752-17.8-10.336.008-18.76 7.985-18.736 17.815Z" fill="#CA0026"/><path d="M39.976 64.624c-7.736 0-14.056-5.993-14.048-13.377.016-7.339 6.32-13.34 14.104-13.325 7.752.016 14.048 6.017 14.024 13.4-.024 7.316-6.28 13.325-14.08 13.302Zm-7.056-6.639c.064.213.12.433.184.646.272.889.936 1.382 1.856 1.527.92.144 1.712-.175 2.248-.912 1-1.383 1.976-2.788 2.96-4.186 2.104-2.993 4.216-5.986 6.32-8.986.456-.654.728-1.33.424-2.15-.328-.882-.976-1.39-1.904-1.52-.888-.129-1.68.183-2.2.904-.952 1.315-1.872 2.652-2.8 3.981-2.152 3.061-4.296 6.123-6.448 9.177-.344.456-.616.934-.64 1.519Zm2.384-11.152c1.312-.015 2.336-1.025 2.352-2.218.016-1.2-1.096-2.256-2.36-2.241-1.264.015-2.32.98-2.336 2.218-.008 1.223 1.096 2.241 2.344 2.241ZM47.032 57.97C47 56.732 46 55.76 44.72 55.736c-1.32-.022-2.376 1.041-2.384 2.219-.008 1.215 1.072 2.24 2.344 2.233 1.296-.015 2.312-.98 2.352-2.218Z" fill="#CA0026"/></svg>