<svg width="80" height="80" fill="none" xmlns="http://www.w3.org/2000/svg"><path d="M76.889 79.374H3.342c-.023-.039-.038-.108-.077-.123-1.163-.45-1.617-1.108-1.617-2.338V28.63H78.12c.154 0 .308 0 .462.008v49.054c-.046.031-.123.062-.131.107-.154.62-.555 1.032-1.109 1.315-.154.076-.3.175-.454.26ZM40.115 51.018c1.471 0 2.95-.015 4.42 0a2.309 2.309 0 0 0 2.35-2.323c-.008-2.926-.008-5.853 0-8.779.008-1.307-1.032-2.346-2.372-2.338-2.857.015-5.715 0-8.572.008-.346 0-.708.053-1.047.145-.893.236-1.525 1.092-1.532 1.963a732.757 732.757 0 0 0 0 9.2c0 .283.107.596.238.856.447.879 1.194 1.268 2.172 1.268h4.343Zm-24.782-6.74v4.471c-.054 1.184.993 2.277 2.287 2.277 2.973-.008 5.945-.008 8.918 0 1.317 0 2.31-1.04 2.31-2.3-.007-2.942-.007-5.884 0-8.825a2.284 2.284 0 0 0-2.333-2.316c-2.95.008-5.899.016-8.84 0-1.356-.007-2.388 1.116-2.35 2.346.039 1.444.008 2.896.008 4.348Zm49.573.016c0-1.513.023-3.033-.008-4.546a2.173 2.173 0 0 0-2.156-2.155c-3.066-.03-6.13-.03-9.188 0-1.124.008-2.118.917-2.133 2.055a368.36 368.36 0 0 0 0 9.284c.015 1.146 1.024 2.07 2.156 2.078 3.065.023 6.13.016 9.188 0 .292 0 .6-.099.862-.229.893-.42 1.286-1.161 1.286-2.131-.007-1.452-.007-2.904-.007-4.356ZM33.354 62.06c0 1.467.015 2.927-.008 4.394-.015 1.352 1.117 2.346 2.357 2.338 2.934-.023 5.868-.023 8.802 0 1.255.015 2.387-.97 2.38-2.361-.016-2.904-.016-5.8 0-8.703.008-1.444-1.155-2.392-2.403-2.384-2.896.03-5.791.038-8.687-.008-1.27-.015-2.503.948-2.457 2.453.047 1.414.016 2.842.016 4.271Zm31.552-.015v-4.317c.061-1.467-1.156-2.407-2.403-2.392-2.896.03-5.791.008-8.687.008-1.471 0-2.426.94-2.426 2.4 0 2.88.03 5.753-.015 8.633-.024 1.368 1.085 2.43 2.433 2.415 2.88-.038 5.768-.038 8.649 0 1.324.015 2.495-.978 2.456-2.43-.046-1.437-.007-2.88-.007-4.317ZM15.333 63.8c0 .955.239 1.52.786 1.98 1 .84 2.01 1.68 3.034 2.483 1.047.817 2.395.641 3.242-.39a346.26 346.26 0 0 1 1.579-1.926c1.47-1.803 2.957-3.59 4.413-5.41.731-.909.562-2.33-.324-3.056-.909-.74-2.318-.703-3.111.199a43.224 43.224 0 0 0-1.51 1.826c-.97 1.192-1.933 2.384-2.903 3.576-.2.245-.377.26-.624.03-.3-.282-.639-.542-.97-.786-.732-.55-1.556-.604-2.357-.23-.808.375-1.232 1.07-1.255 1.704ZM39.5 2.965h1.154c.054.046.1.122.162.137.886.268 1.525 1.085 1.54 1.994.016.726.008 1.452.008 2.178v.436h8.988c.015-.061.03-.084.03-.107.008-.826 0-1.658.016-2.484.015-.917.662-1.742 1.524-2.01.054-.014.085-.09.124-.137H54.2c.139.07.27.145.408.214.84.451 1.286 1.139 1.294 2.094v2.437h9.01c0-.84.008-1.65 0-2.468-.015-.932.686-1.956 1.587-2.147.038-.007.061-.084.1-.13h1.155c.13.07.262.145.393.214.847.459 1.294 1.162 1.294 2.124v2.43h.5c2.126 0 4.251.008 6.384 0 .848 0 1.887.558 2.15 1.559.007.038.084.053.13.084V24.13c-.13.008-.254.023-.385.023H1.67v-.436c0-4.53.015-9.07-.008-13.6-.007-1.437 1.14-2.4 2.395-2.384 2.103.03 4.205.007 6.308.007.146 0 .292-.015.462-.023 0-.855-.016-1.673 0-2.483.015-.879.4-1.559 1.194-1.987.161-.091.323-.19.485-.282h1.155c.046.046.077.107.13.137.316.207.686.375.948.634.447.428.608 1.001.6 1.62-.015.787 0 1.567 0 2.354h9.011c0-.856-.015-1.681 0-2.507.015-.855.408-1.512 1.155-1.94l.532-.298h1.155c.03.046.046.122.084.13.74.221 1.248.687 1.433 1.428.108.436.123.902.139 1.353.023.603.007 1.215.007 1.826h9.026c0-.84.023-1.658-.008-2.468-.03-.925.663-1.933 1.556-2.147.023.008.046-.076.07-.122Zm-28.688 4.79v.383c0 2.047-.007 4.103.008 6.15 0 .283.054.573.139.849.261.901 1.124 1.543 2.056 1.558 1.263.023 2.318-.985 2.326-2.246.007-2.117 0-4.226 0-6.342 0-.107-.016-.222-.023-.344-1.51-.008-2.98-.008-4.506-.008Zm54.094 0v.459c0 1.987-.008 3.973.007 5.96 0 .336.054.68.147 1 .346 1.223 1.917 1.88 3.057 1.3.878-.451 1.317-1.17 1.317-2.147V7.755h-4.528Zm-27 .008c-.016.069-.032.115-.032.16 0 2.255-.015 4.501.008 6.755.016 1.024 1.032 1.964 2.08 2.01 1.316.06 2.387-.932 2.394-2.247.008-2.124 0-4.248 0-6.372 0-.1-.015-.199-.023-.306h-4.428Zm13.53 0c-.015.054-.038.092-.038.13 0 2.27-.031 4.531.015 6.8.023 1.055 1.063 1.972 2.126 2.002a2.272 2.272 0 0 0 2.356-2.254c.008-2.116 0-4.225 0-6.342 0-.107-.015-.221-.023-.336h-4.436Zm-27.062-.008c-.015.077-.03.115-.03.153 0 2.254-.047 4.508.022 6.755.031 1.062.87 1.918 2.057 2.025a2.237 2.237 0 0 0 2.426-2.216c.015-2.124.007-4.248 0-6.38 0-.107-.023-.214-.031-.337h-4.444Z" fill="#CA0026"/><path d="M42.349 42.101v4.401h-4.451v-4.4h4.45Zm-18.021.008v4.393h-4.467V42.11h4.467Zm31.582 4.393v-4.4h4.475v4.4h-4.474ZM42.326 64.29h-4.42v-4.439h4.42v4.44Zm18.051 0h-4.459v-4.447h4.46v4.447Z" fill="#CA0026"/></svg>