<svg width="80" height="80" fill="none" xmlns="http://www.w3.org/2000/svg"><path d="M38.307 1.7h4.603c.097.045.186.113.29.12.95.106 1.915.159 2.858.325 1.418.25 2.821.551 4.217.876 2.242.529 4.365 1.405 6.436 2.41a36.657 36.657 0 0 1 8.493 5.762 37.972 37.972 0 0 1 5.375 6.005 38.472 38.472 0 0 1 4.967 9.456A37.099 37.099 0 0 1 77.26 33.4c.178 1.095.23 2.213.349 3.323.014.136.081.264.126.4v4.683c-.045.098-.112.189-.127.287-.155 1.277-.26 2.56-.467 3.83-.178 1.132-.446 2.25-.713 3.368-.557 2.311-1.41 4.51-2.435 6.647a38.97 38.97 0 0 1-3.192 5.445 36.94 36.94 0 0 1-6.652 7.259 36.79 36.79 0 0 1-10.03 5.989 37.693 37.693 0 0 1-7.55 2.115c-1.091.188-2.197.234-3.296.355-.119.015-.238.083-.356.128h-4.603c-.104-.045-.208-.113-.32-.128-1.217-.159-2.442-.265-3.652-.469-1.15-.196-2.287-.46-3.422-.74-1.9-.46-3.72-1.163-5.494-1.971a34.723 34.723 0 0 1-5.45-3.082c-3.51-2.432-6.562-5.362-9.108-8.821a38.77 38.77 0 0 1-4.744-8.565 35.864 35.864 0 0 1-2.012-7.085c-.245-1.375-.327-2.78-.498-4.17-.014-.135-.081-.271-.126-.4v-4.682c.045-.098.112-.189.119-.295.104-.967.156-1.948.32-2.908.244-1.442.534-2.87.868-4.297.527-2.281 1.38-4.441 2.376-6.548a37.562 37.562 0 0 1 5.65-8.626A37.998 37.998 0 0 1 19.94 8.09a37.03 37.03 0 0 1 6.948-3.739 34.238 34.238 0 0 1 6.927-2.031c1.351-.242 2.732-.34 4.098-.506.133 0 .26-.068.393-.114ZM31.47 39.591c-.17.008-.297.023-.43.023-.706 0-1.411-.015-2.116.007-.29.008-.594.068-.847.19-.958.452-1.44 1.472-1.225 2.514.208.997 1.084 1.692 2.146 1.707.69.008 1.388.015 2.078 0 .297-.007.409.076.401.4-.015 1.436-.007 2.87-.007 4.306 0 .098-.015.196-.022.317-.156.007-.29.023-.424.023-.668 0-1.336-.023-2.004.007-.713.03-1.336.295-1.774.891-.52.71-.602 1.503-.238 2.281.371.8 1.04 1.246 1.93 1.254.706.008 1.41.015 2.116 0 .32-.008.43.09.423.43-.015 1.526 0 3.044-.007 4.57 0 1.45 1.537 2.56 2.97 1.956.92-.385 1.35-1.133 1.358-2.13.015-1.45.015-2.892-.007-4.343-.008-.385.111-.483.49-.483 2.88.015 5.768.008 8.648.008.238 0 .476 0 .706-.03.987-.144 1.73-1.013 1.796-2.01.09-1.329-.957-2.394-2.301-2.394-2.955-.007-5.917 0-8.872 0-.14 0-.282-.015-.43-.023v-5.015h.505c3.058 0 6.11.008 9.168-.007 1.916-.008 3.705-.521 5.368-1.473 2.494-1.435 4.231-3.55 5.226-6.269.453-1.231.639-2.523.646-3.852.007-1.548-.238-3.036-.81-4.456-.92-2.311-2.405-4.162-4.483-5.491-1.678-1.073-3.497-1.767-5.509-1.782-4.135-.023-8.263-.016-12.398-.016-.23 0-.482.015-.683.106-.935.408-1.403 1.125-1.395 2.183.014 5.378.007 10.748.007 16.125v.476Z" fill="#CA0026"/><path d="M35.798 39.6V25.604c0-.513 0-.52.512-.52h8.76c2.517 0 4.544 1.004 6.029 3.073 1.158 1.616 1.537 3.467 1.202 5.393-.445 2.568-1.885 4.433-4.283 5.483a6.764 6.764 0 0 1-2.658.582h-9.243c-.081 0-.17-.008-.319-.015Z" fill="#CA0026"/></svg>